<svg width="81" height="68" viewBox="0 0 81 68" fill="none" xmlns="http://www.w3.org/2000/svg">
<path d="M0.922687 67.6093L80.596 21.9047C80.8147 21.7953 80.9604 21.5767 80.9604 21.3215V0.656047C80.9604 0.291576 80.6688 0 80.3408 0H24.4675C24.2124 0 23.9572 0.145788 23.8843 0.400917L0.084387 66.771C-0.170742 67.3542 0.412428 67.8644 0.922687 67.6093Z" fill="#7AC1E3"/>
<path d="M80.3047 0.0361328H24.4313C24.1762 0.0361328 23.9211 0.181921 23.8482 0.43705L0.0482502 66.8072C-0.133985 67.2445 0.230477 67.6819 0.631394 67.6819C0.740736 67.6819 0.813647 67.6454 0.922989 67.609L80.5963 21.9044C80.8149 21.795 80.9607 21.5763 80.9607 21.3212V0.655733C80.9607 0.291263 80.6691 0.0361328 80.3047 0.0361328ZM80.3047 0.473498C80.414 0.473498 80.4869 0.546392 80.4869 0.655733V21.3212C80.4869 21.3941 80.4505 21.4306 80.3776 21.467L0.704271 67.1716C0.667824 67.1716 0.667841 67.1716 0.631394 67.1716C0.5585 67.1716 0.522044 67.1352 0.485597 67.0987C0.44915 67.0258 0.44915 66.9529 0.485597 66.9165L24.2855 0.546392C24.322 0.473498 24.3585 0.43705 24.4313 0.43705L80.3047 0.473498Z" fill="white"/>
<path d="M34.6004 8.92971C34.6004 8.4559 34.5275 8.12787 34.3452 7.87274C34.163 7.61761 33.9079 7.50827 33.6163 7.50827C33.2883 7.50827 33.0696 7.61761 32.8874 7.87274C32.7051 8.12787 32.6322 8.4559 32.6322 8.92971V9.14839C32.6322 9.6222 32.7051 9.95022 32.8874 10.2054C33.0696 10.4605 33.3247 10.5698 33.6163 10.5698C33.9443 10.5698 34.1995 10.4605 34.3452 10.2054C34.5275 9.95022 34.6004 9.58575 34.6004 9.11194V8.92971ZM35.2929 9.14839C35.2929 9.54931 35.22 9.91378 35.0742 10.2418C34.9284 10.5698 34.7462 10.7885 34.4546 10.9707C34.1995 11.153 33.9079 11.2259 33.5434 11.2259C33.2154 11.2259 32.8874 11.153 32.6322 10.9707C32.3771 10.7885 32.1584 10.5698 32.0126 10.2782C31.8668 9.98667 31.7939 9.6222 31.7939 9.22128V8.96615C31.7939 8.56524 31.8668 8.20077 32.0126 7.87274C32.1584 7.54472 32.3407 7.32604 32.6322 7.1438C32.8874 6.96156 33.179 6.88867 33.5434 6.88867C33.8714 6.88867 34.1995 6.96156 34.4546 7.1438C34.7097 7.32604 34.9284 7.54472 35.0742 7.8363C35.22 8.12787 35.2929 8.49234 35.2929 8.92971V9.14839Z" fill="white"/>
<path d="M36.7507 9.14776V10.5692H37.589C37.8442 10.5692 38.0264 10.4963 38.1722 10.3505C38.318 10.2047 38.3908 10.0589 38.3908 9.80381C38.3908 9.58513 38.318 9.43934 38.1722 9.29355C38.0264 9.18421 37.8442 9.11132 37.6255 9.11132H36.7507V9.14776ZM38.646 7.54409H36.7507V8.56461H37.589C37.8806 8.56461 38.1722 8.6375 38.3908 8.7104C38.6095 8.78329 38.7918 8.96553 38.9011 9.14776C39.0105 9.33 39.0834 9.58513 39.0834 9.80381C39.0834 10.2047 38.9376 10.4963 38.6824 10.7514C38.4273 11.0066 38.0628 11.1159 37.589 11.1159H35.9854V6.96094H38.6095L38.646 7.54409Z" fill="white"/>
<path d="M40.395 9.00197H41.2697C41.5248 9.00197 41.7071 8.92908 41.8528 8.81974C41.9986 8.7104 42.0715 8.52816 42.0715 8.30948C42.0715 8.0908 41.9986 7.90856 41.8528 7.76277C41.7071 7.61698 41.5248 7.54409 41.2697 7.54409H40.395V9.00197ZM40.395 9.58513V11.1524H39.666V6.96094H41.2697C41.7435 6.96094 42.108 7.07028 42.3631 7.32541C42.6547 7.58054 42.764 7.90856 42.764 8.30948C42.764 8.7104 42.6182 9.03842 42.3631 9.2571C42.108 9.47579 41.7071 9.58513 41.2333 9.58513H40.395Z" fill="white"/>
<path d="M44.0393 9.58513H45.2421L44.6225 7.83567L44.0393 9.58513ZM45.7888 11.1524L45.4608 10.1683H43.8571L43.5291 11.1524H42.7637L44.3309 6.96094H44.9869L46.5542 11.1524H45.7888Z" fill="white"/>
<path d="M49.1064 8.09111C49.1064 7.90887 49.0335 7.76309 48.8877 7.65375C48.7419 7.5444 48.5597 7.47151 48.3045 7.47151C48.0859 7.47151 47.9401 7.5444 47.7943 7.65375C47.6485 7.76309 47.5756 7.90887 47.5756 8.09111H46.8467C46.8467 7.87243 46.9196 7.65375 47.0289 7.47151C47.1382 7.28928 47.3204 7.14349 47.5391 7.07059C47.7578 6.96125 48.0129 6.9248 48.2681 6.9248C48.7419 6.9248 49.1063 7.03415 49.3615 7.25283C49.6166 7.47151 49.7624 7.76309 49.7624 8.12756C49.7624 8.30979 49.6895 8.49203 49.5802 8.63782C49.4709 8.7836 49.2886 8.92939 49.1064 9.00229C49.325 9.07518 49.5073 9.22097 49.6531 9.36676C49.7624 9.51255 49.8353 9.73123 49.8353 9.98636C49.8353 10.3508 49.6895 10.6789 49.398 10.8975C49.1064 11.1162 48.7419 11.2256 48.2681 11.2256C47.9765 11.2256 47.7214 11.1527 47.4662 11.0798C47.2111 11.0069 47.0653 10.8246 46.9195 10.6424C46.8102 10.4602 46.7373 10.2415 46.7373 10.0228H47.4662C47.4662 10.205 47.5391 10.3508 47.6849 10.4602C47.8307 10.5695 48.0129 10.6424 48.2681 10.6424C48.5232 10.6424 48.7419 10.5695 48.8877 10.4602C49.0335 10.3508 49.1064 10.1686 49.1064 9.98636C49.1064 9.73123 49.0335 9.58544 48.8877 9.4761C48.7419 9.36676 48.5597 9.33031 48.3045 9.33031H47.8307V8.74716H48.3045C48.8513 8.71071 49.1064 8.52847 49.1064 8.09111Z" fill="white"/>
<path d="M53.1879 8.92971C53.1879 8.4559 53.1151 8.12787 52.9328 7.87274C52.7506 7.61761 52.4955 7.50827 52.2039 7.50827C51.8759 7.50827 51.6572 7.61761 51.4749 7.87274C51.2927 8.12787 51.2198 8.4559 51.2198 8.92971V9.14839C51.2198 9.6222 51.2927 9.95022 51.4749 10.2054C51.6572 10.4605 51.9123 10.5698 52.2039 10.5698C52.5319 10.5698 52.787 10.4605 52.9328 10.2054C53.1151 9.95022 53.1879 9.58575 53.1879 9.11194V8.92971ZM53.9169 9.14839C53.9169 9.54931 53.844 9.91378 53.6982 10.2418C53.5524 10.5698 53.3702 10.7885 53.0786 10.9707C52.8235 11.153 52.5319 11.2259 52.1674 11.2259C51.8394 11.2259 51.5114 11.153 51.2563 10.9707C51.0011 10.7885 50.7824 10.5698 50.6366 10.2782C50.4909 9.98667 50.418 9.6222 50.418 9.22128V8.96615C50.418 8.56524 50.4909 8.20077 50.6366 7.87274C50.7824 7.54472 50.9647 7.32604 51.2563 7.1438C51.5114 6.96156 51.803 6.88867 52.1674 6.88867C52.4955 6.88867 52.8235 6.96156 53.0786 7.1438C53.3338 7.32604 53.5524 7.54472 53.6982 7.8363C53.844 8.12787 53.9169 8.49234 53.9169 8.92971V9.14839Z" fill="white"/>
<path d="M55.3383 9.2571V10.5692H56.1402C56.3589 10.5692 56.5411 10.4963 56.6869 10.387C56.8327 10.2776 56.8691 10.1318 56.8691 9.91315C56.8691 9.47578 56.6504 9.2571 56.2131 9.2571H55.3383ZM55.3383 8.7104H56.0308C56.2495 8.7104 56.4317 8.67395 56.5411 8.56461C56.6504 8.45527 56.7233 8.30948 56.7233 8.12724C56.7233 7.90856 56.6504 7.76277 56.5411 7.68988C56.4317 7.61698 56.2495 7.54409 55.9944 7.54409H55.3019L55.3383 8.7104ZM54.6094 11.1524V6.96094H56.0308C56.5046 6.96094 56.8691 7.07028 57.0878 7.25252C57.3429 7.43475 57.4523 7.72633 57.4523 8.0908C57.4523 8.27303 57.4158 8.45527 57.3065 8.60106C57.1971 8.74684 57.0514 8.89263 56.8691 8.96553C57.0878 9.03842 57.27 9.14776 57.3793 9.29355C57.4887 9.47579 57.5616 9.65802 57.5616 9.91315C57.5616 10.3141 57.4522 10.6056 57.1971 10.8243C56.942 11.043 56.5775 11.1524 56.1402 11.1524H54.6094Z" fill="white"/>
<path d="M59.2014 9.58513H60.4042L59.7846 7.83567L59.2014 9.58513ZM60.9509 11.1524L60.6229 10.1683H59.0192L58.6912 11.1524H57.9258L59.493 6.96094H60.1491L61.7163 11.1524H60.9509Z" fill="white"/>
<path d="M64.8143 11.1524V9.29355H62.9555V11.1524H62.2266V6.96094H62.9555V8.7104H64.8143V6.96094H65.5432V11.1524H64.8143Z" fill="white"/>
<path d="M68.9331 11.1524V8.16369L67.0743 11.1524H66.3818V6.96094H67.0743V9.9496L68.9331 6.96094H69.6256V11.1524H68.9331Z" fill="white"/>
<path d="M70.5 11.1524V6.96094H73.1971V7.54409H71.1925V8.7104H72.9055V9.29355H71.1925V10.5692H73.1971V11.1524H70.5Z" fill="white"/>
<path d="M23.0459 16.9475L0.0842407 66.7706C-0.170889 67.2809 0.339352 67.8276 0.886058 67.6454L72.9419 41.1119C73.1971 41.039 73.3793 40.7839 73.3793 40.5287V17.2391C73.3793 16.8746 73.0877 16.583 72.7597 16.583H23.6655C23.3739 16.583 23.1552 16.7288 23.0459 16.9475Z" fill="white"/>
<path d="M65.9806 35.9003L65.6161 37.3218V33.2761H64.7414V39.6908H65.7619L66.6002 36.7386L67.0011 35.1714V39.6908H67.9123V33.2761H66.8189L65.9806 35.9003ZM62.5546 33.2032C61.5705 33.2032 61.0603 33.7864 61.0603 34.8069V38.1236C61.0603 39.1441 61.5705 39.7273 62.5546 39.7273C63.5387 39.7273 64.0489 39.1441 64.0489 38.1236V37.2853H63.1013V38.1965C63.1013 38.6703 62.8826 38.8161 62.591 38.8161C62.2994 38.8161 62.0807 38.6703 62.0807 38.1965V34.734C62.0807 34.2602 62.2994 34.1144 62.591 34.1144C62.8826 34.1144 63.1013 34.2967 63.1013 34.734V35.4265H64.0489V34.8069C64.0125 33.7864 63.5022 33.2032 62.5546 33.2032ZM58.9099 33.2032C57.9258 33.2032 57.4156 33.7864 57.4156 34.8069V38.1236C57.4156 39.1441 57.9258 39.7273 58.9099 39.7273C59.8939 39.7273 60.4042 39.1441 60.4042 38.1236V37.2853H59.4566V38.1965C59.4566 38.6703 59.2379 38.8161 58.9463 38.8161C58.6547 38.8161 58.436 38.6703 58.436 38.1965V34.734C58.436 34.2602 58.6547 34.1144 58.9463 34.1144C59.2379 34.1144 59.4566 34.2967 59.4566 34.734V35.4265H60.4042V34.8069C60.3677 33.7864 59.8575 33.2032 58.9099 33.2032ZM52.0942 35.7545C52.0942 36.2283 51.912 36.3741 51.6205 36.3741H51.1466V34.1873H51.6205C51.9485 34.1873 52.0942 34.3331 52.0942 34.8069V35.7545ZM51.584 33.2761H50.1261V39.6908H51.1102V37.2853H51.584C52.5681 37.2853 53.0783 36.7386 53.0783 35.6816V34.8434C53.0783 33.8228 52.6045 33.2761 51.584 33.2761ZM55.7025 38.1965C55.7025 38.6703 55.4838 38.8161 55.1922 38.8161C54.9007 38.8161 54.682 38.6339 54.682 38.1965V34.734C54.682 34.2602 54.9007 34.1144 55.1922 34.1144C55.4838 34.1144 55.7025 34.2967 55.7025 34.734V38.1965ZM55.1922 33.2032C54.2082 33.2032 53.6615 33.7864 53.6615 34.8069V38.1236C53.6615 39.1441 54.2082 39.7273 55.1922 39.7273C56.1763 39.7273 56.723 39.1441 56.723 38.1236V34.8069C56.723 33.7864 56.1763 33.2032 55.1922 33.2032ZM69.9533 35.9003L69.5888 37.3218V33.2761H68.7141V39.6908H69.7346L70.5729 36.7386L70.9738 35.1714V39.6908H71.885V33.2761H70.7916L69.9533 35.9003ZM54.6091 30.5062C54.6091 30.98 54.3904 31.1258 54.0988 31.1258C53.8073 31.1258 53.5886 30.9435 53.5886 30.5062V27.0437C53.5886 26.5699 53.8073 26.4241 54.0988 26.4241C54.3904 26.4241 54.6091 26.6063 54.6091 27.0437V30.5062ZM54.0988 25.5129C53.1148 25.5129 52.5681 26.0961 52.5681 27.1166V30.4333C52.5681 31.4538 53.1148 32.0369 54.0988 32.0369C55.0829 32.0369 55.6296 31.4538 55.6296 30.4333V27.1166C55.6296 26.0961 55.0829 25.5129 54.0988 25.5129ZM70.8645 32.0005H71.8486V25.5494H70.8645V32.0005ZM45.0964 32.0005H46.0805V26.497H47.2104V32.0005H48.2309V25.5494H45.0964V32.0005ZM50.0168 26.497H50.4906C50.8186 26.497 50.9644 26.6428 50.9644 27.1166V28.0642C50.9644 28.538 50.7822 28.6838 50.4906 28.6838H50.0168V26.497ZM51.9849 27.9913V27.153C51.9849 26.1325 51.5111 25.5494 50.4906 25.5494H49.0327V31.964H50.0168V29.5585H50.4906C51.5111 29.5585 51.9849 29.0118 51.9849 27.9913ZM68.3132 28.9025H68.787C69.115 28.9025 69.2608 29.0483 69.2608 29.5221V30.4697C69.2608 30.9435 69.0786 31.0893 68.787 31.0893H68.3132V28.9025ZM70.2813 30.3968V29.5585C70.2813 28.538 69.8075 27.9549 68.787 27.9549H68.3132V25.5494H67.3291V31.964H68.787C69.8075 32.0005 70.2813 31.4173 70.2813 30.3968ZM65.6526 32.0005V26.497H66.7096V25.5858H63.6116V26.497H64.6685V32.0005H65.6526ZM62.0807 32.0005H63.1013L61.7163 28.4287L63.1013 25.5494H62.1172L60.8051 28.3558V25.5494H59.821V31.964H60.8051V29.9959L61.0967 29.4128L62.0807 32.0005ZM59.0921 26.497V25.5858H56.3586V32.0005H59.0921V31.0893H57.3791V29.1941H58.7641V28.2829H57.3791V26.497H59.0921ZM45.0964 21.5402H46.2263V24.2737H47.2468V17.859H46.2263V20.5926H45.0964V17.859H44.1124V24.2737H45.0964V21.5402ZM42.3629 22.8158C42.3629 23.2896 42.1442 23.4354 41.8526 23.4354C41.561 23.4354 41.3424 23.2532 41.3424 22.8158V19.3534C41.3424 18.8795 41.561 18.7338 41.8526 18.7338C42.1442 18.7338 42.3629 18.916 42.3629 19.3534V22.8158ZM41.8526 17.7861C40.8686 17.7861 40.3219 18.3693 40.3219 19.3898V22.7429C40.3219 23.7635 40.8686 24.3466 41.8526 24.3466C42.8367 24.3466 43.3834 23.7635 43.3834 22.7429V19.3898C43.347 18.3693 42.8367 17.7861 41.8526 17.7861ZM71.9579 18.7702V17.859H69.2244V24.2737H71.9579V23.3625H70.2449V21.4673H71.6299V20.5561H70.2449V18.7702H71.9579ZM49.1056 22.2691L49.5794 19.0253L50.0532 22.2691H49.1056ZM50.3812 24.2737H51.4018L50.3812 17.859H48.9234L47.9028 24.2737H48.814L48.9962 23.1074H50.2355L50.3812 24.2737ZM35.2922 17.859H34.2717V23.3625H33.1418V17.859H32.1577V24.2737H34.7819V25.1484H35.766V23.399H35.3286L35.2922 17.859ZM60.9873 21.5402H62.1172V24.2737H63.1377V17.859H62.1172V20.5926H60.9873V17.859H60.0033V24.2737H60.9873V21.5402ZM57.3062 21.2122H57.78C58.108 21.2122 58.2538 21.3579 58.2538 21.8318V22.7794C58.2538 23.2532 58.0716 23.399 57.78 23.399H57.3062V21.2122ZM59.2743 22.7065V21.8682C59.2743 20.8477 58.8005 20.301 57.78 20.301H57.3062V17.8955H56.3221V24.3102H57.78C58.7641 24.2737 59.2743 23.727 59.2743 22.7065ZM64.9236 21.2122H65.3974C65.7254 21.2122 65.8713 21.3579 65.8713 21.8318V22.7794C65.8713 23.2532 65.689 23.399 65.3974 23.399H64.9236V21.2122ZM66.8918 22.7065V21.8682C66.8918 20.8477 66.4179 20.301 65.3974 20.301H64.9236V17.8955H63.9395V24.3102H65.3974C66.3815 24.2737 66.8918 23.727 66.8918 22.7065ZM53.5157 22.67L53.625 18.8067H54.4998V24.3102H55.5203V17.8955H52.7139L52.5681 22.7429C52.5316 23.3261 52.4223 23.399 51.9485 23.399V24.3102H52.0942C53.0419 24.3102 53.4792 23.8363 53.5157 22.67ZM37.6977 20.5197L37.3332 21.9411V17.8955H36.4585V24.3102H37.479L38.3173 21.3579L38.7182 19.7907V24.3102H39.6294V17.8955H38.536L37.6977 20.5197ZM29.2419 22.2691L29.7158 19.0253L30.1896 22.2691H29.2419ZM29.0597 17.859L28.0392 24.2737H28.9504L29.1326 23.1074H30.3718L30.554 24.2737H31.5746L30.554 17.859H29.0597ZM68.459 17.859H67.4749V24.2737H68.459V17.859ZM26.3991 20.629H25.2692V17.8955H24.2852V24.3102H25.2692V21.5402H26.3991V24.2737H27.4196V17.859H26.3991V20.629Z" fill="#7AC1E3"/>
</svg>
