<svg width="221" height="52" viewBox="0 0 221 52" fill="none" xmlns="http://www.w3.org/2000/svg">
<path d="M29.7344 4.3924C31.0024 3.92143 32.1255 3.41423 33.2848 3.08818C39.2624 1.49414 45.7473 4.42862 48.4644 9.97154C50.0946 13.2683 49.9497 16.6738 48.6093 20.043C47.3775 23.1224 45.3488 25.6584 42.8852 28.0132C42.1244 26.7814 41.9071 25.5497 42.3418 24.2817C42.6316 23.4847 43.1026 22.7239 43.6098 22.0355C45.0589 20.043 46.0733 17.9055 46.182 15.4058C46.4718 10.5512 42.378 6.67477 38.0306 6.13135C36.2555 5.91398 34.5165 6.13135 32.8862 6.81969C32.4877 7.00083 32.2341 6.92837 31.9081 6.60232C31.256 5.95021 30.5676 5.26187 29.7344 4.3924Z" fill="white"/>
<path d="M9.48257 23.1221C10.6056 24.6074 10.497 26.6724 9.22897 28.4114C8.25081 29.7518 7.30888 31.0923 6.76545 32.6863C4.33816 39.4248 9.59125 44.7503 15.1342 45.0039C16.6558 45.0764 18.1049 44.7866 19.5178 44.2431C19.7352 44.1707 20.0612 44.1344 20.2061 44.2431C21.0031 44.9677 21.7639 45.7285 22.6696 46.6342C21.5466 47.0689 20.5684 47.5399 19.554 47.8297C12.9967 49.8585 5.64238 46.2357 3.39623 39.8595C2.16447 36.3091 2.74411 32.9037 4.37438 29.6069C5.64237 27.1796 7.41756 25.0784 9.48257 23.1221Z" fill="white"/>
<path d="M28.6841 9.46365C27.0538 10.3694 25.4597 10.4056 23.9019 9.53611C23.3947 9.28251 22.96 8.92023 22.489 8.59418C19.9893 6.85522 17.2722 5.8046 14.1928 6.23934C8.25133 7.07259 4.70096 13.2314 6.94711 18.8468C7.20071 19.5351 7.12826 19.8974 6.58483 20.3321C5.93272 20.8755 5.31683 21.4914 4.55604 22.2522C4.08507 21.1291 3.57788 20.1872 3.28805 19.1366C1.15058 11.8909 5.8965 4.28302 13.3595 3.01503C16.4389 2.50783 19.3372 3.15994 22.1267 4.53661C24.4091 5.65969 26.4017 7.2175 28.2493 8.95646C28.358 9.06514 28.5029 9.24629 28.6841 9.46365Z" fill="white"/>
<path d="M47.7039 28.9551C48.6096 30.368 49.1168 31.8533 49.4066 33.3749C50.6021 40.1496 46.0012 46.7794 39.2627 48.0474C36.0746 48.6632 33.0677 47.9749 30.2057 46.562C27.8508 45.4027 25.822 43.8086 23.9382 41.961C23.8657 41.8886 23.7933 41.7799 23.6846 41.635C24.9163 40.9466 26.1481 40.693 27.4523 41.164C28.2131 41.4538 28.9377 41.8523 29.5898 42.2871C31.5461 43.6637 33.6111 44.6419 36.0022 44.8593C42.8131 45.4751 47.9212 38.7367 45.4577 32.3968C45.1679 31.5997 45.2041 31.1288 45.8925 30.6216C46.5446 30.1868 47.088 29.571 47.7039 28.9551Z" fill="white"/>
<path d="M16.3662 16.565C14.6997 17.6881 13.0694 17.833 11.4391 16.6375C9.80886 15.4419 9.41037 13.1958 10.461 11.4931C11.4754 9.82657 13.6853 9.13823 15.4242 9.97148C17.3081 10.841 18.2138 12.9422 17.4892 14.8261C17.3443 15.2246 17.453 15.4419 17.7066 15.7318C18.5761 16.6375 19.4093 17.5794 20.315 18.5938C20.1701 18.7749 19.8441 19.101 19.4456 19.4995C18.395 18.5213 17.3806 17.5794 16.3662 16.565Z" fill="white"/>
<path d="M32.8496 32.5416C33.2119 32.2156 33.5379 31.9258 33.9365 31.5635C34.7335 32.3605 35.5667 33.1213 36.4 33.9545C36.726 34.2806 36.9796 34.3893 37.4868 34.1719C39.0446 33.4111 41.001 33.8821 42.0878 35.1501C43.1747 36.3818 43.3558 38.0846 42.5226 39.4612C41.6168 40.9466 39.8779 41.6712 38.1027 41.2726C36.4724 40.9104 35.2044 39.5337 35.1682 37.8672C35.132 37.1064 35.4218 36.3456 35.5667 35.4761C34.8059 34.5704 33.864 33.5923 32.8496 32.5416Z" fill="white"/>
<path d="M35.5675 0.00846831C43.2841 -0.245129 50.3849 5.22533 51.8702 12.6159C52.8122 17.1806 51.4717 21.202 48.6821 24.8248C46.6534 27.4695 44.2985 29.7156 41.7988 31.9255C41.6901 32.0342 41.5452 32.1429 41.4003 32.2154C41.2916 32.2516 41.1104 32.2154 41.038 32.1429C40.9655 32.0704 40.9655 31.8531 41.038 31.7806C41.1829 31.5995 41.364 31.4546 41.5452 31.2734C44.0812 29.0273 46.5084 26.6724 48.5372 23.9191C54.4424 15.9489 50.8558 6.16727 42.8856 2.32708C38.3209 0.117154 33.6837 0.189612 29.0464 2.21839C28.7928 2.32708 28.4305 2.29085 28.1045 2.29085C28.3219 2.07348 28.503 1.74742 28.7566 1.63874C30.9303 0.58812 33.2127 0.0809248 35.5675 0.00846831Z" fill="white"/>
<path d="M15.9319 0.0807236C19.6996 0.00826713 22.9602 1.45739 25.8222 3.63109C28.177 5.40627 30.3507 7.47128 32.5607 9.4276C32.7056 9.57252 32.7056 9.89857 32.778 10.1159C32.5244 10.0435 32.2346 10.0073 32.0535 9.86235C30.242 8.2683 28.5031 6.6018 26.6554 5.08022C24.1557 3.05144 21.4023 1.38494 18.1418 0.913971C10.0267 -0.317789 3.10708 5.11645 1.29567 12.181C0.317508 16.0211 0.824713 19.6802 2.70858 23.1581C2.78104 23.303 2.88971 23.4479 2.92594 23.5928C2.92594 23.7378 2.85349 23.9189 2.81726 24.0638C2.67235 23.9914 2.49121 23.9551 2.3463 23.8827C2.23761 23.8102 2.20139 23.6653 2.12894 23.5204C-3.70381 13.1591 3.97657 0.0807236 15.9319 0.0807236Z" fill="white"/>
<path d="M16.3661 51.0898C9.19295 50.6188 3.90363 47.5394 1.15028 40.9459C-0.987181 35.9102 -0.0452473 31.128 3.14284 26.7082C5.24407 23.8099 7.81627 21.3827 10.4972 19.0278C10.6421 18.8829 10.9319 18.9191 11.1493 18.8467C11.0768 19.064 11.0768 19.3901 10.8957 19.535C8.57706 21.6363 6.25846 23.7375 4.33836 26.2372C2.49072 28.6283 1.04159 31.2367 0.824221 34.3524C0.498167 38.6635 1.87484 42.395 4.88179 45.4382C9.80883 50.4739 16.9096 51.7057 23.2857 48.735C23.3582 48.6987 23.4669 48.6263 23.5393 48.6263C23.7205 48.6263 23.9016 48.6625 24.0827 48.6987C23.9741 48.8799 23.9378 49.1697 23.7929 49.2059C22.5612 49.6769 21.3294 50.2203 20.0252 50.5464C18.7934 50.8724 17.4892 50.9449 16.3661 51.0898Z" fill="white"/>
<path d="M52.3048 35.1495C52.2324 44.2428 44.6606 51.3797 35.6036 50.945C32.5242 50.8001 29.8433 49.5683 27.3436 47.9381C24.554 46.1266 22.1629 43.8805 19.8081 41.5619C19.6632 41.417 19.6994 41.1272 19.627 40.9098C19.8443 40.9822 20.1341 40.946 20.2791 41.0909C22.1629 42.7574 23.9743 44.4601 25.8944 46.0542C28.0681 47.8294 30.5317 49.2423 33.285 49.9306C38.9004 51.3073 45.0954 48.9887 48.5733 44.1341C52.2686 38.9535 52.5584 33.483 49.6601 27.7952C49.5877 27.6865 49.5152 27.5778 49.479 27.5053C49.479 27.3242 49.5152 27.1431 49.5152 26.9619C49.6964 27.0344 49.95 27.0706 50.0224 27.1793C50.4572 28.0125 50.8919 28.8458 51.218 29.7153C52.015 31.418 52.3048 33.2656 52.3048 35.1495Z" fill="white"/>
<path d="M37.2342 14.3549C36.7994 13.4854 36.7994 12.5435 37.4878 11.7102C38.1036 10.9857 38.9006 10.6596 39.8788 10.877C41.2917 11.203 42.0887 12.5797 41.6902 13.9201C41.2917 15.2244 39.8426 15.9489 38.5384 15.4417C38.0674 15.2606 37.85 15.3693 37.524 15.6591C36.4371 16.7097 35.3503 17.7603 34.191 18.8472C33.9374 18.6298 33.7562 18.4487 33.6113 18.3038C34.8069 16.9633 36.0024 15.6953 37.2342 14.3549Z" fill="white"/>
<path d="M18.5763 32.8311C18.8299 33.0847 19.0111 33.2296 19.1197 33.3382C18.2503 34.2802 17.417 35.1859 16.5838 36.0554C16.4751 36.2003 16.3302 36.309 16.1853 36.4539C15.7143 36.8524 15.4969 37.2147 15.7143 37.903C16.0766 38.9899 15.4969 40.1129 14.4825 40.5839C13.5044 41.0549 12.3088 40.8375 11.5843 40.0405C10.8597 39.2434 10.7873 38.0117 11.3669 37.106C11.9828 36.1641 13.1421 35.7655 14.1927 36.2003C14.6999 36.4177 14.9897 36.2727 15.3158 35.9105C16.3664 34.9323 17.4532 33.9179 18.5763 32.8311Z" fill="white"/>
<path d="M27.4886 34.5341C27.0901 34.5341 26.7278 34.4979 26.4017 34.5341C25.6409 34.6428 25.17 34.4254 25.1337 33.5559C25.0975 33.085 23.9382 32.7589 23.5397 33.085C23.2499 33.3023 22.8876 33.8095 22.7065 33.7371C22.1268 33.5559 21.5834 33.1936 21.0762 32.8314C20.9675 32.7589 21.0762 32.2879 21.1849 32.0706C21.4747 31.5271 21.1124 31.2735 20.8226 30.9475C20.4965 30.5852 20.2067 30.5128 19.8082 30.7301C19.301 31.0199 18.9387 30.9475 18.7213 30.3316C18.6851 30.1867 18.6126 30.078 18.504 29.9693C18.033 29.3534 17.9243 28.8463 18.7576 28.4115C18.9025 28.3391 18.9749 27.9768 18.9387 27.7956C18.83 27.4333 18.9387 26.9262 18.3591 26.8175C18.033 26.745 17.4896 26.6726 17.4534 26.4914C17.3447 25.8755 17.3809 25.2234 17.4534 24.6076C17.4534 24.4989 17.8881 24.354 18.1055 24.354C18.6127 24.3177 18.83 24.1366 18.9749 23.6294C19.0836 23.1946 19.1561 22.7961 18.7213 22.5425C18.1055 22.1803 18.1055 21.7455 18.504 21.2383C18.6126 21.0934 18.7214 20.9123 18.7938 20.7674C19.0474 20.2239 19.3735 20.1153 19.8807 20.4051C20.3154 20.6587 20.6777 20.55 21.0399 20.1877C21.4022 19.8254 21.4747 19.5356 21.2211 19.1009C20.9675 18.6299 21.0037 18.2676 21.5834 18.0502C21.7283 18.014 21.837 17.9053 21.9456 17.8329C22.8876 17.3257 22.8876 17.3257 23.6122 18.1227C23.9382 18.485 25.0251 18.2676 25.17 17.7966C25.2424 17.5793 25.2786 17.3981 25.2786 17.1808C25.3149 16.7823 25.5322 16.6011 25.9308 16.6373C26.1481 16.6736 26.3655 16.6373 26.5466 16.6373C27.561 16.6373 27.6335 16.6011 27.7422 17.6517C27.8146 18.3401 28.358 18.1952 28.7203 18.3038C28.9015 18.3763 29.1913 18.2314 29.4087 18.0865C29.6985 17.9053 30.0608 17.4344 30.2419 17.4706C30.8216 17.688 31.365 18.014 31.8722 18.4125C31.9446 18.485 31.7273 18.9197 31.7273 19.1733C31.7273 19.4269 31.6548 19.7892 31.7635 19.9703C32.0533 20.2964 32.3069 20.876 32.959 20.5138C33.6111 20.1153 34.0459 20.3326 34.2995 21.021C34.3719 21.2383 34.5169 21.4195 34.6618 21.6368C34.9516 21.9991 34.8429 22.2527 34.4806 22.5063C34.1908 22.7237 33.7561 22.8324 33.9372 23.412C34.1183 23.9917 34.2632 24.4989 34.9878 24.4626C35.4588 24.4264 35.6037 24.7162 35.5312 25.151C35.495 25.3683 35.495 25.5857 35.5312 25.7669C35.6399 26.4552 35.4588 26.8899 34.6618 26.8537C34.0821 26.8175 34.0821 27.3247 33.9372 27.7232C33.7923 28.1217 33.8285 28.3753 34.227 28.5927C34.8429 28.9187 34.8791 29.3534 34.4444 29.8969C34.3357 30.0418 34.227 30.2229 34.1546 30.3678C33.9372 30.9113 33.5749 31.0924 33.0677 30.7664C32.5968 30.4765 32.2707 30.6939 31.9447 31.0199C31.5824 31.3822 31.4374 31.7083 31.7273 32.1792C32.0171 32.614 31.8722 32.9038 31.4012 33.1212C31.2201 33.1936 31.0027 33.3023 30.8578 33.411C30.3144 33.8457 29.8434 33.8457 29.4449 33.1936C29.3362 33.0125 28.9377 32.9038 28.7566 32.9763C28.3581 33.1212 27.9958 33.3386 27.7059 33.6284C27.5248 33.8095 27.561 34.1718 27.4886 34.5341ZM26.438 31.817C29.9521 31.817 32.8141 29.0636 32.8141 25.6944C32.8141 22.2527 29.9883 19.4269 26.5104 19.4269C23.0687 19.4269 20.1342 22.2527 20.1342 25.5857C20.1342 29.0274 22.9238 31.817 26.438 31.817Z" fill="white"/>
<path d="M26.4737 31.0197C23.358 31.0197 20.9308 28.6649 20.8945 25.5493C20.8945 22.6872 23.4305 20.2237 26.4012 20.1875C29.4444 20.1875 31.9804 22.6148 31.9804 25.6217C32.0166 28.5924 29.5168 31.0197 26.4737 31.0197ZM26.8722 21.1294C26.5824 21.2019 26.1476 21.2019 26.0027 21.4193C25.4593 22.1801 25.3868 22.2163 24.5536 21.6004C24.3 21.7453 24.0464 21.8902 23.829 21.9989C24.0101 22.7597 23.7566 23.2669 23.3218 23.122C22.5973 22.8684 22.561 23.3756 22.3437 23.7741C22.9958 24.5349 22.8871 24.8609 21.9451 25.2232V26.0202C22.8871 26.4188 22.9233 26.5999 22.3074 27.5418C22.4886 27.723 22.6697 28.0853 22.8871 28.1215C23.9015 28.3389 23.9015 28.3026 23.8653 29.2446C24.2275 29.4982 24.5536 29.788 25.0245 29.317C25.1332 29.2083 25.7853 29.3895 25.8216 29.5344C25.9665 30.2227 26.4374 30.0416 26.8359 30.0054C27.1258 29.1721 27.633 28.9547 28.3213 29.6431C28.7198 29.4619 29.227 29.3532 29.0096 28.6649C28.9734 28.5562 29.4444 28.2664 29.7342 28.1215C29.8429 28.049 30.024 28.1577 30.2052 28.1939C30.3501 27.9041 30.4588 27.6867 30.6037 27.4331C29.9516 26.7086 30.0603 26.3463 31.0022 26.0202C31.0022 25.9116 31.0384 25.7666 31.0384 25.6217C31.0384 25.4768 31.0022 25.2957 31.0022 25.187C30.0965 24.8972 30.024 24.6073 30.6399 23.7016C30.495 23.4843 30.3501 23.2307 30.2052 23.0133C29.1908 23.2669 28.9372 23.0133 29.1546 21.9627C28.901 21.8178 28.6474 21.6729 28.43 21.5279C27.633 22.2887 27.3069 22.1801 26.8722 21.1294Z" fill="white"/>
<path d="M73.0273 20.9117V15.3687V13.666H79.4035H81.2149V20.9117H79.5122V15.0065H74.6939V20.9117H73.0273Z" fill="white"/>
<path d="M83.9316 20.9117V13.666H91.3584V14.8978H85.6344V16.528H88.9674V17.7598H85.6344V19.5712H91.4309V20.9479L83.9316 20.9117Z" fill="white"/>
<path d="M93.6416 20.9118V19.5351H94.5835V17.2165C94.5835 16.0572 94.9458 15.1877 95.6342 14.5718C96.3587 13.9559 97.3731 13.6299 98.7136 13.6299H103.423V19.5351H104.329V20.9118H93.6416ZM101.72 14.9341H98.7136C97.9528 14.9341 97.3369 15.1152 96.9384 15.5137C96.5036 15.9123 96.2863 16.4919 96.2863 17.2165V19.5351H101.72V14.9341Z" fill="white"/>
<path d="M105.995 20.9117L110.089 13.666H111.719L115.885 20.9117H114.002L113.132 19.3176H108.531L107.698 20.9117H105.995ZM109.256 18.0134H112.444L110.886 15.0427L109.256 18.0134Z" fill="white"/>
<path d="M118.276 20.9117V13.666H124.906L124.109 14.934H119.943V20.9117H118.276Z" fill="white"/>
<path d="M126.935 15.3687C126.935 14.7166 127.043 14.2457 127.297 14.0283C127.55 13.7747 128.021 13.666 128.746 13.666H134.108C134.796 13.666 135.267 13.7747 135.521 14.0283C135.774 14.2819 135.883 14.7166 135.883 15.3687V19.2089C135.883 19.861 135.774 20.332 135.521 20.5494C135.267 20.803 134.796 20.9117 134.108 20.9117H128.746C128.058 20.9117 127.587 20.803 127.297 20.5494C127.043 20.2958 126.935 19.861 126.935 19.2089V15.3687ZM128.637 19.535H134.216V14.934H128.637V19.535Z" fill="white"/>
<path d="M138.817 20.9117V13.666H145.447L144.65 14.934H140.484V20.9117H138.817Z" fill="white"/>
<path d="M154.359 20.9117V16.9628C154.359 16.7454 154.359 16.5643 154.359 16.4556C154.359 16.3831 154.359 16.2744 154.395 16.1658C154.432 16.0571 154.432 15.9122 154.432 15.8397C154.359 15.9122 154.287 16.0208 154.178 16.1295C154.106 16.202 153.997 16.3107 153.852 16.4194L148.526 20.9117H147.367V13.666H148.889V17.47C148.889 17.6149 148.889 17.7598 148.889 17.8685C148.889 17.9409 148.889 18.0859 148.853 18.267C148.816 18.4481 148.816 18.5931 148.816 18.738C148.961 18.5931 149.07 18.4481 149.179 18.3395C149.287 18.2308 149.432 18.1221 149.65 17.9409L154.758 13.666H155.917V20.9117H154.359Z" fill="white"/>
<path d="M160.519 13.6299V17.3976H165.337V13.6299H167.04V20.8755H165.337V18.7381H160.627C159.939 18.7381 159.468 18.6294 159.214 18.3758C158.961 18.1222 158.852 17.6874 158.852 17.0353V13.6299C158.816 13.6299 160.519 13.6299 160.519 13.6299Z" fill="white"/>
<path d="M170.047 20.9117V13.666H177.474V14.8978H171.75V16.528H175.083V17.7598H171.75V19.5712H177.546V20.9479L170.047 20.9117Z" fill="white"/>
<path d="M186.422 14.934H181.857V19.535H186.422V17.9772L188.125 18.3395V19.2089C188.125 19.861 188.016 20.332 187.762 20.5494C187.509 20.803 187.038 20.9117 186.313 20.9117H181.966C181.277 20.9117 180.806 20.803 180.517 20.5494C180.263 20.2958 180.154 19.861 180.154 19.2089V15.3687C180.154 14.7166 180.263 14.2457 180.517 14.0283C180.77 13.7747 181.241 13.666 181.966 13.666H186.313C187.001 13.666 187.472 13.7747 187.762 14.0283C188.016 14.2819 188.125 14.7166 188.125 15.3687V16.0571L186.422 16.3107V14.934Z" fill="white"/>
<path d="M190.334 20.9117V13.666H192.037V16.673L196.058 13.666H198.522L193.703 17.0715L199.101 20.9117H196.384L192.037 17.7236V20.9117H190.334Z" fill="white"/>
<path d="M208.34 20.9117V16.9628C208.34 16.7454 208.34 16.5643 208.34 16.4556C208.34 16.3831 208.34 16.2744 208.376 16.1658C208.376 16.0209 208.412 15.9122 208.412 15.8397C208.34 15.9122 208.267 16.0208 208.159 16.1295C208.086 16.202 207.977 16.3107 207.832 16.4194L202.507 20.9117H201.348V13.666H202.869V17.47C202.869 17.6149 202.869 17.7598 202.869 17.8685C202.869 17.9409 202.869 18.0859 202.833 18.267C202.833 18.4481 202.797 18.5931 202.797 18.738C202.942 18.5931 203.05 18.4481 203.159 18.3395C203.268 18.2308 203.413 18.1221 203.63 17.9409L208.738 13.666H209.898V20.9117H208.34Z" fill="white"/>
<path d="M219.244 20.9121V16.9632C219.244 16.7458 219.244 16.5647 219.244 16.456C219.244 16.3835 219.244 16.2749 219.28 16.1662C219.28 16.0213 219.316 15.9126 219.316 15.8401C219.244 15.9126 219.172 16.0213 219.063 16.1299C218.99 16.2024 218.882 16.3111 218.737 16.4198L213.411 20.9121H212.252V13.6664H213.774V17.4704C213.774 17.6153 213.774 17.7602 213.774 17.8689C213.774 17.9414 213.774 18.0863 213.737 18.2674C213.737 18.4486 213.701 18.5935 213.701 18.7384C213.846 18.5935 213.955 18.4486 214.063 18.3399C214.172 18.2312 214.317 18.1225 214.534 17.9414L219.643 13.6664H220.802V20.9121H219.244ZM218.23 13.6302V12.3984H214.933V13.6302H218.23Z" fill="white"/>
<path d="M72.7012 37.7945V30.5488H74.4039V33.592L78.4252 30.5488H80.8887L76.0704 33.9543L81.4684 37.7945H78.7513L74.4039 34.6064V37.7945H72.7012Z" fill="white"/>
<path d="M83.0986 37.7945V30.5488H89.2937C89.8733 30.5488 90.2718 30.6575 90.5616 30.8749C90.8152 31.0922 90.9239 31.4545 90.9239 31.9255V32.795C90.9239 33.121 90.8152 33.4109 90.5979 33.6282C90.3805 33.8456 90.0544 33.9905 89.6559 34.0267C90.0907 34.0992 90.3805 34.2441 90.6341 34.4615C90.8515 34.6788 90.9601 35.0049 90.9601 35.4034V36.3453C90.9601 36.8163 90.779 37.1786 90.4167 37.4322C90.0544 37.6496 89.5473 37.7945 88.8227 37.7945H83.0986ZM88.6053 31.7081H84.7651V33.4471H88.6053C88.8951 33.4471 89.0763 33.4109 89.2212 33.3384C89.3299 33.2659 89.4023 33.121 89.4023 32.9399V32.2516C89.4023 32.0704 89.3299 31.9255 89.2212 31.853C89.0763 31.7444 88.8951 31.7081 88.6053 31.7081ZM88.6053 34.6426H84.7651V36.4903H88.6053C88.9314 36.4903 89.1487 36.454 89.2574 36.3453C89.3661 36.2367 89.4386 36.0917 89.4386 35.8382V35.2947C89.4386 35.0411 89.3661 34.8962 89.2574 34.7875C89.1487 34.6788 88.9314 34.6426 88.6053 34.6426Z" fill="white"/>
<path d="M92.3008 37.7945L96.3946 30.5488H98.0248L102.191 37.7945H100.307L99.4377 36.2004H94.8368L94.0035 37.7945H92.3008ZM95.5613 34.8962H98.7494L97.1916 31.9617L95.5613 34.8962Z" fill="white"/>
<path d="M103.785 37.7945V30.5488H105.488V33.3746H110.777V30.5488H112.48V37.7945H110.777V34.6788H105.488V37.7945H103.785Z" fill="white"/>
<path d="M118.856 31.8169V37.7946H117.153V31.8169H113.82V30.5127H122.189V31.8169H118.856Z" fill="white"/>
<path d="M123.239 32.2516C123.239 31.5994 123.348 31.1285 123.602 30.9111C123.855 30.6575 124.326 30.5488 125.051 30.5488H130.412C131.101 30.5488 131.572 30.6575 131.825 30.9111C132.079 31.1647 132.224 31.5994 132.224 32.2516V36.0917C132.224 36.7439 132.115 37.2148 131.825 37.4322C131.572 37.6858 131.101 37.7945 130.412 37.7945H125.051C124.362 37.7945 123.891 37.6858 123.602 37.4322C123.348 37.1786 123.239 36.7439 123.239 36.0917V32.2516ZM124.942 36.4178H130.521V31.8168H124.942V36.4178Z" fill="white"/>
<path d="M134.217 37.7945V30.5488H140.412C140.991 30.5488 141.39 30.6575 141.68 30.8749C141.933 31.0922 142.078 31.4545 142.078 31.9617V33.592C142.078 34.0992 141.97 34.4252 141.68 34.6426C141.426 34.86 140.991 34.9687 140.412 34.9687H135.883V37.7945H134.217ZM139.651 31.7806H135.847V33.7007H139.651C139.941 33.7007 140.158 33.6645 140.267 33.5558C140.376 33.4833 140.412 33.3384 140.412 33.121V32.3602C140.412 32.1429 140.376 31.998 140.267 31.9255C140.158 31.8168 139.977 31.7806 139.651 31.7806Z" fill="white"/>
<path d="M151.642 37.7945V33.8818C151.642 33.6645 151.642 33.4833 151.642 33.3746C151.642 33.3022 151.642 33.1935 151.679 33.0848C151.679 32.9399 151.715 32.8312 151.715 32.7588C151.642 32.8312 151.57 32.9399 151.461 33.0486C151.389 33.121 151.28 33.2297 151.135 33.3746L145.81 37.8669H144.65V30.6213H146.172V34.3528C146.172 34.4977 146.172 34.6426 146.172 34.7513C146.172 34.8238 146.172 34.9687 146.136 35.1498C146.1 35.331 146.1 35.4759 146.1 35.6208C146.244 35.4759 146.353 35.331 146.462 35.2223C146.57 35.1136 146.715 35.0049 146.933 34.8238L152.041 30.5488H153.2V37.7945H151.642Z" fill="white"/>
<path d="M155.592 37.7945V36.4178H159.758H162.113V35.2223H157.403C156.715 35.2223 156.244 35.1136 155.99 34.86C155.737 34.6064 155.628 34.1716 155.628 33.5195V30.5488H157.331V33.9905H162.149V30.5488H163.852V36.0917C163.852 36.7439 163.743 37.2148 163.49 37.4322C163.236 37.6858 162.765 37.7945 162.04 37.7945H159.686H157.476H155.592Z" fill="white"/>
<path d="M166.062 37.7945V30.5488H167.438L170.844 34.9324L174.177 30.5488H175.517V37.7945H173.959V33.3022C173.959 33.1573 173.959 33.0486 173.959 32.9761C173.959 32.8674 173.996 32.7225 173.996 32.5414C173.959 32.6138 173.923 32.7225 173.887 32.795C173.851 32.8674 173.814 32.9399 173.778 33.0123C173.706 33.1573 173.633 33.2659 173.597 33.3022L170.88 36.925H170.554L167.837 33.2659C167.764 33.1935 167.692 33.0486 167.583 32.8674C167.474 32.7225 167.438 32.6138 167.402 32.5052C167.402 32.6501 167.438 32.795 167.438 32.9399V33.3022V37.7945H166.062Z" fill="white"/>
<path d="M183.233 37.7945V30.5488H189.428C190.008 30.5488 190.407 30.6575 190.696 30.8749C190.95 31.0922 191.095 31.4545 191.095 31.9617V33.592C191.095 34.0992 190.986 34.4252 190.696 34.6426C190.443 34.86 190.008 34.9687 189.428 34.9687H184.9V37.7945H183.233ZM188.668 31.7806H184.864V33.7007H188.668C188.957 33.7007 189.175 33.6645 189.283 33.5558C189.392 33.4833 189.428 33.3384 189.428 33.121V32.3602C189.428 32.1429 189.392 31.998 189.283 31.9255C189.175 31.8168 188.994 31.7806 188.668 31.7806Z" fill="white"/>
<path d="M193.885 37.7945V30.5488H200.515L199.718 31.8168H195.588V37.7945H193.885Z" fill="white"/>
<path d="M201.818 37.7945V32.2516V30.5488H208.195H210.006V37.7945H208.303V31.8893H203.485V37.7945H201.818Z" fill="white"/>
<path d="M212.506 37.7945V36.4178H216.672H219.027V35.2223H214.317C213.629 35.2223 213.158 35.1136 212.904 34.86C212.651 34.6064 212.542 34.1716 212.542 33.5195V30.5488H214.245V33.9905H219.063V30.5488H220.766V36.0917C220.766 36.7439 220.657 37.2148 220.404 37.4322C220.15 37.6858 219.679 37.7945 218.955 37.7945H216.6H214.39H212.506Z" fill="white"/>
</svg>
