<svg width="117" height="63" viewBox="0 0 117 63" fill="none" xmlns="http://www.w3.org/2000/svg">
<path d="M3.51135 2.35296H0V0H9.59284V2.35296H6.0453V11.5838H3.51135V2.35296Z" fill="white"/>
<path d="M17.0857 6.44365C16.9409 5.32147 16.2894 4.56128 15.2034 4.56128C14.1536 4.56128 13.4658 5.32147 13.2848 6.44365H17.0857ZM10.8232 7.16764C10.8232 4.63368 12.6332 2.57031 15.2034 2.57031C18.1717 2.57031 19.5111 4.85088 19.5111 7.38483C19.5111 7.60203 19.5111 7.81922 19.4749 8.03642H13.321C13.5744 9.1948 14.3708 9.77399 15.493 9.77399C16.3255 9.77399 16.9409 9.5206 17.6287 8.86901L19.0767 10.136C18.2441 11.1496 17.0495 11.8012 15.4568 11.8012C12.8142 11.8012 10.8232 9.91879 10.8232 7.16764Z" fill="white"/>
<path d="M23.7469 7.09497L20.7785 2.71484H23.4573L25.1224 5.285L26.7876 2.71484H29.4302L26.4256 7.02257L29.5388 11.5837H26.86L25.0501 8.83254L23.2763 11.5837H20.6699L23.7469 7.09497Z" fill="white"/>
<path d="M39.1682 11.5837H36.6705V8.18095H33.5573V11.5837H31.0596V2.71484H33.5573V6.11759H36.6705V2.71484H39.1682V11.5837Z" fill="white"/>
<path d="M48.1088 7.16764C48.1088 5.86446 47.1676 4.70608 45.7921 4.70608C44.3441 4.70608 43.4753 5.82826 43.4753 7.16764C43.4753 8.47082 44.4165 9.62919 45.7921 9.62919C47.24 9.62919 48.1088 8.50702 48.1088 7.16764ZM40.9775 7.16764C40.9775 4.63368 43.0409 2.57031 45.7921 2.57031C48.5432 2.57031 50.5704 4.59748 50.5704 7.16764C50.5704 9.7016 48.507 11.765 45.7559 11.765C43.0047 11.8012 40.9775 9.73779 40.9775 7.16764Z" fill="white"/>
<path d="M60.4533 11.5837H57.9194V4.88681H54.9148V11.5837H52.3809V2.71484H60.4533V11.5837Z" fill="white"/>
<path d="M67.9462 8.47075V8.03635C67.5118 7.81916 66.9688 7.71056 66.3534 7.71056C65.2674 7.71056 64.6159 8.14495 64.6159 8.97754C64.6159 9.66533 65.1588 10.0635 65.9914 10.0635C67.1498 10.0273 67.9462 9.37573 67.9462 8.47075ZM62.1543 9.01374C62.1543 7.09517 63.6385 6.19018 65.738 6.19018C66.643 6.19018 67.2584 6.33498 67.91 6.55218V6.40738C67.91 5.3576 67.2584 4.77841 66.0276 4.77841C65.0864 4.77841 64.3987 4.95941 63.5661 5.249L62.9507 3.33043C63.9281 2.89604 64.8692 2.60645 66.3896 2.60645C67.7652 2.60645 68.7426 2.96844 69.3942 3.58383C70.0458 4.23542 70.3354 5.2128 70.3354 6.40738V11.5477H67.91V10.5703C67.2946 11.2581 66.462 11.6925 65.2312 11.6925C63.5299 11.7649 62.1543 10.7875 62.1543 9.01374Z" fill="white"/>
<path d="M79.2762 7.1315C79.2762 5.64733 78.2988 4.66994 77.1042 4.66994C75.9096 4.66994 74.9684 5.64733 74.9684 7.1315C74.9684 8.61568 75.9458 9.59306 77.1042 9.59306C78.2626 9.62926 79.2762 8.65188 79.2762 7.1315ZM72.4707 2.71518H74.9684V3.98216C75.5838 3.14957 76.4164 2.53418 77.7196 2.53418C79.783 2.53418 81.7377 4.16315 81.7377 7.1315C81.7377 10.0999 79.8192 11.7288 77.7196 11.7288C76.3802 11.7288 75.5476 11.1134 74.9684 10.3894V14.1904H72.4707V2.71518Z" fill="white"/>
<path d="M83.6201 2.71484H86.1541V6.37098L89.3034 2.71484H92.1994L88.9414 6.37098L92.6338 11.5837H89.6654L87.2762 8.21715L86.1541 9.44793V11.5837H83.6201V2.71484Z" fill="white"/>
<path d="M0.325792 30.1181L0.687786 29.2131C1.04978 29.3941 1.37558 29.5027 1.88237 29.5027C2.57016 29.5027 2.96835 29.1407 3.43894 28.0909L0 20.5977H1.23078L3.98193 26.8964L6.4073 20.5977H7.60187L4.45252 28.3805C3.80093 29.9371 3.07695 30.5163 1.95477 30.5163C1.30318 30.4801 0.832584 30.3715 0.325792 30.1181Z" fill="white"/>
<path d="M9.37598 20.5615H10.4982V23.8195H14.8421V20.5615H15.9643V28.1272H14.8421V24.8331H10.4982V28.1272H9.37598V20.5615Z" fill="white"/>
<path d="M18.4619 20.5615H19.5841V26.5344L24.0728 20.5615H25.1588V28.1272H24.0366V22.1543L19.5479 28.1272H18.4619V20.5615Z" fill="white"/>
<path d="M31.3124 27.1498C32.3984 27.1498 33.05 26.6792 33.05 25.8828C33.05 25.1588 32.3984 24.7245 31.1676 24.7245H28.8146V27.1498H31.3124ZM31.0952 23.8195C32.0002 23.8195 32.6156 23.3851 32.6156 22.6249C32.6156 22.0095 32.0726 21.5751 31.1314 21.5751H28.7784V23.8557H31.0952V23.8195ZM27.6562 20.5615H31.3124C32.7966 20.5615 33.7739 21.3217 33.7739 22.4439C33.7739 23.4213 33.1586 23.9281 32.507 24.1815C33.412 24.4349 34.1721 24.9778 34.1721 26.0638C34.1721 27.3308 33.0862 28.1272 31.421 28.1272H27.6562V20.5615Z" fill="white"/>
<path d="M41.7375 23.8912C41.5928 22.5156 40.8326 21.3572 39.3484 21.3572C38.0452 21.3572 37.0678 22.4432 36.8868 23.8912H41.7375ZM35.7646 24.3618C35.7646 22.1898 37.285 20.416 39.3846 20.416C41.629 20.416 42.8959 22.1898 42.8959 24.3979C42.8959 24.5065 42.8959 24.6151 42.8959 24.7961H36.923C37.0678 26.3889 38.2624 27.2939 39.5656 27.2939C40.6154 27.2939 41.3394 26.8595 41.9547 26.2441L42.6425 26.8595C41.8823 27.6921 40.9774 28.2713 39.5294 28.2713C37.4298 28.3075 35.7646 26.7147 35.7646 24.3618Z" fill="white"/>
<path d="M51.2951 24.3255C51.2951 22.5518 50.0643 21.3934 48.6525 21.3934C47.2407 21.3934 45.9375 22.588 45.9375 24.3255C45.9375 26.0631 47.2769 27.2577 48.6525 27.2577C50.1005 27.2577 51.2951 26.2079 51.2951 24.3255ZM44.8516 20.5608H45.9737V22.0812C46.5891 21.1762 47.4579 20.416 48.8697 20.416C50.6797 20.416 52.4896 21.8278 52.4896 24.3618C52.4896 26.8233 50.7159 28.2713 48.8697 28.2713C47.4579 28.2713 46.5529 27.5111 45.9737 26.6785V30.4432H44.8516V20.5608Z" fill="white"/>
<path d="M54.0459 24.3618C54.0459 22.226 55.7111 20.416 57.9192 20.416C59.3672 20.416 60.236 21.0314 60.9238 21.7554L60.1998 22.5156C59.6206 21.9002 58.8966 21.3934 57.883 21.3934C56.3627 21.3934 55.1681 22.6966 55.1681 24.3255C55.1681 25.9545 56.3627 27.2577 57.9192 27.2577C58.8966 27.2577 59.5844 26.7509 60.1998 26.1355L60.9238 26.8233C60.1636 27.6559 59.2586 28.2713 57.8468 28.2713C55.7111 28.3075 54.0459 26.4975 54.0459 24.3618Z" fill="white"/>
<path d="M67.8373 25.3391V24.6513C67.2943 24.5065 66.5704 24.3255 65.6292 24.3255C64.2174 24.3255 63.421 24.9409 63.421 25.8821C63.421 26.8232 64.2898 27.3662 65.3034 27.3662C66.7152 27.3662 67.8373 26.5336 67.8373 25.3391ZM62.2988 25.8821C62.2988 24.2531 63.602 23.4205 65.5206 23.4205C66.498 23.4205 67.1495 23.5653 67.8373 23.7463V23.4929C67.8373 22.1535 67.041 21.4657 65.593 21.4657C64.688 21.4657 64.0002 21.6829 63.3124 22.0087L62.9866 21.1037C63.8192 20.7055 64.6156 20.4521 65.7378 20.4521C66.7876 20.4521 67.6201 20.7417 68.1631 21.2847C68.7061 21.7915 68.9595 22.5517 68.9595 23.4929V28.0902H67.8373V26.968C67.2943 27.6558 66.4618 28.235 65.1224 28.235C63.6744 28.2712 62.2988 27.4748 62.2988 25.8821Z" fill="white"/>
<path d="M70.0459 28.1271L70.1907 27.1497C70.3355 27.1859 70.5889 27.2583 70.7337 27.2583C71.6387 27.2583 72.3989 26.8602 72.3989 21.213V20.5977H77.7564V28.1271H76.6342V21.575H73.4848V21.756C73.4848 27.6203 72.435 28.2357 70.9871 28.2357C70.6975 28.2357 70.2631 28.1633 70.0459 28.1271Z" fill="white"/>
<path d="M83.3671 27.1136C84.4893 27.1136 85.1771 26.643 85.1771 25.7018C85.1771 24.8331 84.4893 24.3625 83.3309 24.3625H81.34V27.1136H83.3671ZM80.2178 20.5615H81.34V23.3851H83.3671C84.9961 23.3851 86.3355 24.0367 86.3355 25.6294C86.3355 27.1498 85.2133 28.091 83.4757 28.091H80.2178V20.5615Z" fill="white"/>
<path d="M88.0732 20.5615H89.1954V23.8195H93.5394V20.5615H94.6615V28.1272H93.5394V24.8331H89.1954V28.1272H88.0732V20.5615Z" fill="white"/>
<path d="M104.616 20.5615H105.738V28.091H104.616V20.5615ZM100.309 27.1136C101.431 27.1136 102.118 26.643 102.118 25.7018C102.118 24.8331 101.431 24.3625 100.272 24.3625H98.2814V27.1136H100.309ZM97.1592 20.5615H98.2814V23.3851H100.309C101.937 23.3851 103.277 24.0367 103.277 25.6294C103.277 27.1498 102.155 28.091 100.417 28.091H97.1592V20.5615Z" fill="white"/>
<path d="M110.517 24.2901L107.694 20.5615H108.961L111.205 23.4937L113.413 20.5615H114.68L111.82 24.2539L114.789 28.1272H113.486L111.169 25.0502L108.816 28.1272H107.549L110.517 24.2901Z" fill="white"/>
<path d="M0 36.7061H6.51589V44.2717H5.39371V37.7196H1.12218V44.2717H0V36.7061Z" fill="white"/>
<path d="M14.552 40.0367C14.4072 38.6611 13.647 37.5027 12.1628 37.5027C10.8597 37.5027 9.88227 38.5887 9.70127 40.0367H14.552ZM8.5791 40.5073C8.5791 38.3353 10.0995 36.5615 12.199 36.5615C14.4434 36.5615 15.7104 38.3353 15.7104 40.5435C15.7104 40.6521 15.7104 40.7607 15.7104 40.9417H9.73748C9.88227 42.5344 11.0769 43.4394 12.38 43.4394C13.4298 43.4394 14.1538 43.005 14.7692 42.3896L15.457 43.005C14.6968 43.8376 13.7918 44.4168 12.3438 44.4168C10.2443 44.453 8.5791 42.8602 8.5791 40.5073Z" fill="white"/>
<path d="M22.6245 43.2581V37.6834H19.4751V38.7332C19.4751 40.6156 19.1131 42.2808 18.5701 43.2219L22.6245 43.2581ZM16.543 43.2581H17.3756C17.9909 42.136 18.3891 40.5794 18.3891 38.0092V36.7061H23.7466V43.2581H24.8688L24.6878 46.1179H23.7466V44.2355H17.6651L17.448 46.1179H16.543V43.2581Z" fill="white"/>
<path d="M31.3852 41.4845V40.7967C30.8422 40.6519 30.082 40.4709 29.177 40.4709C27.7653 40.4709 26.9689 41.0863 26.9689 42.0275C26.9689 42.9687 27.8377 43.5117 28.8512 43.5117C30.263 43.5117 31.3852 42.6791 31.3852 41.4845ZM25.8467 42.0275C25.8467 40.3985 27.1499 39.5659 29.0684 39.5659C30.0458 39.5659 30.6974 39.7107 31.3852 39.8917V39.6745C31.3852 38.3352 30.5888 37.6474 29.1408 37.6474C28.2358 37.6474 27.5481 37.8646 26.8603 38.1904L26.5345 37.2854C27.3671 36.8872 28.1634 36.6338 29.2856 36.6338C30.3354 36.6338 31.168 36.9234 31.711 37.4664C32.254 37.9732 32.5074 38.7334 32.5074 39.6745V44.2719H31.3852V43.1497C30.8784 43.8375 30.0096 44.4529 28.6702 44.4529C27.2585 44.4167 25.8467 43.6203 25.8467 42.0275Z" fill="white"/>
<path d="M34.8604 36.7061H40.0007V37.7196H35.9825V44.2717H34.8604V36.7061Z" fill="white"/>
<path d="M47.8561 40.5073C47.8561 38.8783 46.6615 37.5751 45.0687 37.5751C43.4397 37.5751 42.3176 38.9145 42.3176 40.5073C42.3176 42.1 43.5121 43.4394 45.1049 43.4394C46.7339 43.4394 47.8561 42.1 47.8561 40.5073ZM41.1592 40.5073C41.1592 38.3715 42.8243 36.5615 45.1049 36.5615C47.3493 36.5615 49.0144 38.3353 49.0144 40.5073C49.0144 42.643 47.3493 44.453 45.0687 44.453C42.7881 44.453 41.1592 42.643 41.1592 40.5073Z" fill="white"/>
<path d="M51.041 36.7061H56.1813V37.7196H52.1632V44.2717H51.041V36.7061Z" fill="white"/>
<path d="M57.8105 36.7061H58.9327V42.679L63.3853 36.7061H64.5074V44.2717H63.3853V38.2988L58.8603 44.2717H57.8105V36.7061Z" fill="white"/>
<path d="M71.7837 41.1586C71.2407 41.4844 70.1547 41.8464 69.2497 41.8464C67.7655 41.8464 66.752 41.0862 66.752 39.602V36.7423H67.8741V39.421C67.8741 40.326 68.4171 40.869 69.3945 40.869C70.1909 40.869 71.1683 40.5794 71.7837 40.145V36.7061H72.9059V44.2355H71.7837V41.1586Z" fill="white"/>
<path d="M80.9417 40.0367C80.7969 38.6611 80.0367 37.5027 78.5164 37.5027C77.2132 37.5027 76.2358 38.5887 76.0548 40.0367H80.9417ZM74.9326 40.5073C74.9326 38.3353 76.453 36.5615 78.5526 36.5615C80.7969 36.5615 82.0639 38.3353 82.0639 40.5435C82.0639 40.6521 82.0639 40.7607 82.0639 40.9417H76.091C76.2358 42.5344 77.4304 43.4394 78.7336 43.4394C79.7833 43.4394 80.5073 43.005 81.1227 42.3896L81.8105 43.005C81.0503 43.8376 80.1453 44.4168 78.6974 44.4168C76.634 44.453 74.9326 42.8602 74.9326 40.5073Z" fill="white"/>
<path d="M83.585 40.5073C83.585 38.3715 85.2501 36.5615 87.4583 36.5615C88.9063 36.5615 89.7751 37.1407 90.4628 37.9009L89.7389 38.6611C89.1597 38.0457 88.4357 37.5389 87.4221 37.5389C85.9017 37.5389 84.7071 38.8421 84.7071 40.4711C84.7071 42.1 85.9017 43.4032 87.4583 43.4032C88.4357 43.4032 89.1235 42.8964 89.7389 42.281L90.4628 42.9688C89.7027 43.8014 88.7977 44.4168 87.3859 44.4168C85.2501 44.453 83.585 42.643 83.585 40.5073Z" fill="white"/>
<path d="M92.3809 36.7061H93.503V41.05L97.6298 36.7061H99.0053L95.856 40.0002L99.0777 44.2717H97.7746L95.0958 40.7966L93.503 42.4256V44.2717H92.3809V36.7061Z" fill="white"/>
<path d="M100.635 36.7061H101.757V42.679L106.246 36.7061H107.332V44.2717H106.209V38.2988L101.721 44.2717H100.635V36.7061Z" fill="white"/>
<path d="M112.11 40.4346L109.286 36.7061H110.553L112.798 39.6382L115.006 36.7061H116.273L113.413 40.3984L116.381 44.2717H115.078L112.762 41.1948L110.409 44.2717H109.142L112.11 40.4346Z" fill="white"/>
<path d="M0 52.8506H1.12218V57.1945L5.24891 52.8506H6.62449L3.47514 56.1447L6.69689 60.4163H5.39371L2.71496 56.9411L1.12218 58.5701V60.4163H0V52.8506Z" fill="white"/>
<path d="M14.5163 56.6518C14.5163 55.0228 13.2855 53.7196 11.7289 53.7196C10.1 53.7196 8.97778 55.059 8.97778 56.6518C8.97778 58.2446 10.1724 59.5839 11.7651 59.5839C13.3579 59.5839 14.5163 58.2446 14.5163 56.6518ZM7.7832 56.6518C7.7832 54.516 9.44837 52.7061 11.7289 52.7061C13.9733 52.7061 15.6385 54.4798 15.6385 56.6518C15.6385 58.7876 13.9733 60.5975 11.6927 60.5975C9.44837 60.5613 7.7832 58.7876 7.7832 56.6518Z" fill="white"/>
<path d="M17.665 52.8506H18.751L21.5746 56.8325L24.3619 52.8506H25.4479V60.4163H24.3257V54.6606L21.5384 58.4615L18.7872 54.6606V60.4163H17.665V52.8506Z" fill="white"/>
<path d="M27.9463 52.8506H34.4984V60.4163H33.3762V53.8642H29.0685V60.4163H27.9463V52.8506Z" fill="white"/>
<path d="M42.5345 56.1812C42.3897 54.8056 41.6295 53.6472 40.1453 53.6472C38.8422 53.6472 37.8648 54.7332 37.6838 56.1812H42.5345ZM36.5254 56.6518C36.5254 54.4798 38.0458 52.7061 40.1453 52.7061C42.3897 52.7061 43.6567 54.4798 43.6567 56.688C43.6567 56.7966 43.6567 56.9052 43.6567 57.0862H37.6838C37.8286 58.679 39.0231 59.5839 40.3263 59.5839C41.3761 59.5839 42.1001 59.1495 42.7155 58.5342L43.4033 59.1495C42.6431 59.9821 41.7381 60.5613 40.2901 60.5613C38.2268 60.5613 36.5254 59.0047 36.5254 56.6518Z" fill="white"/>
<path d="M47.4571 53.8642H44.7422V52.8506H51.2943V53.8642H48.5793V60.4163H47.4571V53.8642Z" fill="white"/>
<path d="M58.4622 56.1812C58.3174 54.8056 57.5572 53.6472 56.0731 53.6472C54.7699 53.6472 53.7925 54.7332 53.6115 56.1812H58.4622ZM52.4531 56.6518C52.4531 54.4798 53.9735 52.7061 56.0731 52.7061C58.3174 52.7061 59.5844 54.4798 59.5844 56.688C59.5844 56.7966 59.5844 56.9052 59.5844 57.0862H53.6115C53.7563 58.679 54.9509 59.5839 56.2541 59.5839C57.3038 59.5839 58.0278 59.1495 58.6432 58.5342L59.331 59.1495C58.5708 59.9821 57.6658 60.5613 56.2179 60.5613C54.1545 60.5613 52.4531 59.0047 52.4531 56.6518Z" fill="white"/>
<path d="M61.5752 52.8506H62.6974V56.1085H67.0413V52.8506H68.1635V60.4163H67.0413V57.1221H62.6974V60.4163H61.5752V52.8506Z" fill="white"/>
<path d="M77.177 60.4163H70.6611V52.8506H71.7833V59.4027H76.0186V52.8506H77.1408V59.4027H78.263L78.082 62.2986H77.177V60.4163Z" fill="white"/>
<path d="M79.8193 52.8506H80.9415V58.8235L85.4302 52.8506H86.5162V60.4163H85.3941V54.4434L80.9053 60.4163H79.8193V52.8506Z" fill="white"/>
<path d="M90.2816 49.9915L91.0418 49.8467C91.2228 50.4621 91.621 50.8603 92.3088 50.8603C93.0328 50.8603 93.431 50.4621 93.5758 49.8467L94.3359 49.9915C94.1549 51.0413 93.3586 51.7652 92.2726 51.7652C91.2228 51.8014 90.4626 51.0413 90.2816 49.9915ZM89.0146 52.8512H90.1368V58.8241L94.6256 52.8512H95.7115V60.3807H94.5893V54.4078L90.1006 60.3807H89.0146V52.8512Z" fill="white"/>
</svg>
