<svg width="230" height="54" viewBox="0 0 230 54" fill="none" xmlns="http://www.w3.org/2000/svg">
<path d="M30.973 4.57507C32.2938 4.08449 33.4637 3.55616 34.6713 3.21652C40.8979 1.55608 47.6529 4.61281 50.4832 10.3866C52.1814 13.8207 52.0305 17.368 50.6342 20.8776C49.3511 24.0853 47.2378 26.7269 44.6717 29.1798C43.8792 27.8968 43.6528 26.6137 44.1056 25.2929C44.4075 24.4627 44.8981 23.6702 45.4264 22.9532C46.9359 20.8776 47.9926 18.6511 48.1058 16.0472C48.4077 10.9904 44.1434 6.95253 39.6149 6.38646C37.7657 6.16004 35.9543 6.38647 34.2561 7.10348C33.841 7.29216 33.5769 7.21669 33.2372 6.87705C32.558 6.19778 31.841 5.48077 30.973 4.57507Z" fill="#64BDE1"/>
<path d="M9.87782 24.0853C11.0477 25.6326 10.9345 27.7836 9.61365 29.595C8.59474 30.9913 7.61357 32.3876 7.04751 34.048C4.51911 41.0672 9.99102 46.6145 15.7648 46.8787C17.3498 46.9542 18.8593 46.6523 20.3311 46.0862C20.5575 46.0108 20.8971 45.973 21.0481 46.0862C21.8783 46.841 22.6708 47.6335 23.6142 48.5769C22.4444 49.0297 21.4255 49.5203 20.3688 49.8222C13.5383 51.9355 5.87766 48.1618 3.53794 41.52C2.25487 37.8217 2.85865 34.2744 4.55683 30.8403C5.87764 28.3119 7.72679 26.1231 9.87782 24.0853Z" fill="#64BDE1"/>
<path d="M29.8786 9.85832C28.1804 10.8018 26.52 10.8395 24.8973 9.93379C24.369 9.66963 23.9161 9.29226 23.4255 8.95262C20.8216 7.14122 17.9913 6.04684 14.7837 6.49969C8.59473 7.36765 4.89646 13.783 7.23618 19.6323C7.50034 20.3493 7.42487 20.7267 6.85881 21.1795C6.17953 21.7456 5.53798 22.3871 4.7455 23.1796C4.25491 22.0098 3.72659 21.0286 3.42469 19.9342C1.19818 12.3867 6.1418 4.46187 13.9157 3.14106C17.1234 2.61274 20.1424 3.29201 23.0481 4.72603C25.4256 5.89589 27.5012 7.5186 29.4258 9.32999C29.539 9.44321 29.6899 9.63189 29.8786 9.85832Z" fill="#64BDE1"/>
<path d="M49.6908 30.161C50.6342 31.6328 51.1625 33.18 51.4644 34.765C52.7097 41.8219 47.9171 48.7278 40.8979 50.0486C37.5771 50.6901 34.4449 49.9731 31.4636 48.5014C29.0107 47.2938 26.8974 45.6333 24.935 43.7087C24.8595 43.6333 24.7841 43.52 24.6709 43.3691C25.9539 42.6521 27.237 42.3879 28.5955 42.8785C29.388 43.1804 30.1428 43.5955 30.8221 44.0484C32.8599 45.4824 35.0109 46.5013 37.5016 46.7277C44.5962 47.3693 49.9172 40.3501 47.351 33.7461C47.0491 32.9158 47.0869 32.4253 47.8039 31.8969C48.4832 31.4441 49.0492 30.8025 49.6908 30.161Z" fill="#64BDE1"/>
<path d="M17.0479 17.2548C15.312 18.4247 13.6138 18.5756 11.9156 17.3303C10.2174 16.085 9.80235 13.7453 10.8967 11.9716C11.9534 10.2357 14.2553 9.51867 16.0667 10.3866C18.0291 11.2923 18.9725 13.4811 18.2178 15.4434C18.0668 15.8586 18.18 16.085 18.4442 16.3869C19.3499 17.3303 20.2179 18.3115 21.1613 19.3681C21.0103 19.5568 20.6707 19.8965 20.2556 20.3116C19.1612 19.2927 18.1046 18.3115 17.0479 17.2548Z" fill="#64BDE1"/>
<path d="M34.2184 33.897C34.5958 33.5573 34.9354 33.2554 35.3505 32.8781C36.1808 33.7083 37.0487 34.5008 37.9167 35.3687C38.2563 35.7084 38.5205 35.8216 39.0488 35.5951C40.6715 34.8027 42.7093 35.2932 43.8414 36.6141C44.9736 37.8971 45.1623 39.6708 44.2943 41.1048C43.3509 42.652 41.5395 43.4068 39.6903 42.9917C37.9922 42.6143 36.6713 41.1803 36.6336 39.4444C36.5959 38.6519 36.8978 37.8594 37.0487 36.9537C36.2562 36.0103 35.2751 34.9913 34.2184 33.897Z" fill="#64BDE1"/>
<path d="M37.0487 0.00882108C45.0868 -0.255341 52.4833 5.44301 54.0306 13.1414C55.0117 17.8963 53.6154 22.0852 50.7097 25.8589C48.5964 28.6138 46.1434 30.9535 43.5396 33.2555C43.4264 33.3687 43.2754 33.4819 43.1244 33.5574C43.0112 33.5951 42.8225 33.5574 42.7471 33.4819C42.6716 33.4064 42.6716 33.18 42.7471 33.1045C42.898 32.9158 43.0867 32.7649 43.2754 32.5762C45.917 30.2365 48.4454 27.7835 50.5587 24.9155C56.7099 16.6133 52.9739 6.42418 44.6717 2.42401C39.9168 0.122034 35.0864 0.19751 30.256 2.3108C29.9918 2.42402 29.6144 2.38628 29.2748 2.38628C29.5012 2.15985 29.6899 1.82022 29.9541 1.707C32.2183 0.612619 34.5958 0.0842959 37.0487 0.00882108Z" fill="#64BDE1"/>
<path d="M16.5951 0.0842498C20.5198 0.00877503 23.9161 1.51827 26.8974 3.78251C29.3503 5.63164 31.6146 7.78268 33.9165 9.82049C34.0675 9.97145 34.0675 10.3111 34.143 10.5375C33.8788 10.462 33.5769 10.4243 33.3882 10.2733C31.5013 8.6129 29.6899 6.87698 27.7653 5.29201C25.1614 3.17871 22.2934 1.44279 18.897 0.952208C10.4439 -0.330863 3.23602 5.32975 1.34915 12.6885C0.330238 16.6887 0.858571 20.5002 2.82091 24.123C2.89639 24.2739 3.00959 24.4249 3.04733 24.5758C3.04733 24.7268 2.97186 24.9155 2.93412 25.0664C2.78317 24.9909 2.59449 24.9532 2.44354 24.8777C2.33033 24.8022 2.2926 24.6513 2.21713 24.5003C-3.85859 13.7074 4.14172 0.0842498 16.5951 0.0842498Z" fill="#64BDE1"/>
<path d="M17.0479 53.2186C9.5759 52.728 4.06624 49.5203 1.1982 42.6521C-1.0283 37.4066 -0.0471321 32.4253 3.27376 27.8213C5.46253 24.8023 8.14188 22.2739 10.9344 19.821C11.0854 19.6701 11.3873 19.7078 11.6137 19.6323C11.5382 19.8587 11.5382 20.1984 11.3495 20.3493C8.93435 22.5381 6.51917 24.7269 4.51909 27.3308C2.59448 29.8214 1.08498 32.5385 0.858556 35.7839C0.51892 40.2747 1.95294 44.1616 5.08515 47.3316C10.2174 52.5771 17.614 53.8601 24.2557 50.7657C24.3312 50.7279 24.4444 50.6525 24.5199 50.6525C24.7086 50.6525 24.8973 50.6902 25.086 50.7279C24.9728 50.9166 24.935 51.2185 24.7841 51.2563C23.501 51.7468 22.2179 52.3129 20.8594 52.6525C19.5763 52.9922 18.2178 53.0677 17.0479 53.2186Z" fill="#64BDE1"/>
<path d="M54.4834 36.6141C54.4079 46.0862 46.5208 53.5204 37.0865 53.0676C33.8788 52.9167 31.0862 51.6336 28.4823 49.9354C25.5766 48.0485 23.0859 45.7088 20.633 43.2936C20.482 43.1427 20.5197 42.8408 20.4443 42.6143C20.6707 42.6898 20.9726 42.6521 21.1235 42.803C23.0859 44.539 24.9728 46.3126 26.9728 47.9731C29.2371 49.8222 31.8032 51.2939 34.6713 52.011C40.5206 53.445 46.9736 51.0298 50.5964 45.973C54.4456 40.5765 54.7475 34.8782 51.7286 28.9534C51.6531 28.8402 51.5776 28.727 51.5399 28.6515C51.5399 28.4628 51.5776 28.2741 51.5776 28.0854C51.7663 28.1609 52.0305 28.1987 52.1059 28.3119C52.5588 29.1798 53.0116 30.0478 53.3513 30.9535C54.1815 32.7271 54.4834 34.6518 54.4834 36.6141Z" fill="#64BDE1"/>
<path d="M38.7846 14.9528C38.3318 14.0471 38.3318 13.066 39.0488 12.198C39.6903 11.4433 40.5205 11.1036 41.5395 11.3301C43.0112 11.6697 43.8414 13.1037 43.4263 14.5C43.0112 15.8585 41.5017 16.6133 40.1432 16.085C39.6526 15.8963 39.4262 16.0095 39.0865 16.3114C37.9544 17.4058 36.8223 18.5002 35.6147 19.6323C35.3505 19.4059 35.1618 19.2172 35.0109 19.0662C36.2562 17.6699 37.5016 16.3491 38.7846 14.9528Z" fill="#64BDE1"/>
<path d="M19.3499 34.1989C19.614 34.463 19.8027 34.614 19.9159 34.7272C19.0102 35.7083 18.1423 36.6518 17.2743 37.5575C17.1611 37.7084 17.0102 37.8216 16.8592 37.9726C16.3686 38.3877 16.1422 38.7651 16.3686 39.4821C16.746 40.6142 16.1422 41.7841 15.0856 42.2747C14.0667 42.7652 12.8213 42.5388 12.0666 41.7086C11.3118 40.8784 11.2364 39.5953 11.8402 38.6519C12.4817 37.6707 13.6893 37.2556 14.7837 37.7084C15.312 37.9349 15.6139 37.7839 15.9535 37.4065C17.0479 36.3876 18.18 35.331 19.3499 34.1989Z" fill="#64BDE1"/>
<path d="M28.6333 35.9726C28.2182 35.9726 27.8408 35.9348 27.5012 35.9726C26.7087 36.0858 26.2181 35.8593 26.1804 34.9536C26.1426 34.4631 24.935 34.1234 24.5199 34.4631C24.218 34.6895 23.8406 35.2178 23.652 35.1423C23.0482 34.9536 22.4821 34.5763 21.9538 34.1989C21.8406 34.1234 21.9538 33.6328 22.067 33.4064C22.3689 32.8403 21.9915 32.5762 21.6896 32.2366C21.35 31.8592 21.0481 31.7837 20.633 32.0101C20.1046 32.312 19.7273 32.2365 19.5008 31.595C19.4631 31.4441 19.3876 31.3308 19.2744 31.2176C18.7838 30.5761 18.6706 30.0478 19.5386 29.5949C19.6895 29.5195 19.765 29.1421 19.7273 28.9534C19.614 28.576 19.7273 28.0477 19.1235 27.9345C18.7838 27.859 18.2178 27.7835 18.18 27.5949C18.0668 26.9533 18.1046 26.274 18.18 25.6325C18.18 25.5193 18.6329 25.3683 18.8593 25.3683C19.3876 25.3306 19.6141 25.1419 19.765 24.6136C19.8782 24.1607 19.9537 23.7456 19.5008 23.4815C18.8593 23.1041 18.8593 22.6513 19.2744 22.1229C19.3876 21.972 19.5008 21.7833 19.5763 21.6323C19.8405 21.0663 20.1801 20.9531 20.7084 21.255C21.1613 21.5191 21.5386 21.4059 21.916 21.0285C22.2934 20.6512 22.3689 20.3493 22.1047 19.8964C21.8405 19.4058 21.8783 19.0285 22.4821 18.802C22.633 18.7643 22.7462 18.6511 22.8595 18.5756C23.8406 18.0473 23.8406 18.0473 24.5954 18.8775C24.935 19.2549 26.0671 19.0285 26.2181 18.5379C26.2936 18.3115 26.3313 18.1228 26.3313 17.8963C26.369 17.4812 26.5955 17.2925 27.0106 17.3303C27.237 17.368 27.4634 17.3303 27.6521 17.3303C28.7088 17.3303 28.7842 17.2925 28.8974 18.3869C28.9729 19.1039 29.539 18.953 29.9164 19.0662C30.105 19.1417 30.4069 18.9907 30.6334 18.8398C30.9353 18.6511 31.3126 18.1605 31.5013 18.1982C32.1051 18.4247 32.6712 18.7643 33.1995 19.1794C33.275 19.2549 33.0486 19.7077 33.0486 19.9719C33.0486 20.2361 32.9731 20.6134 33.0863 20.8021C33.3882 21.1418 33.6524 21.7456 34.3316 21.3682C35.0109 20.9531 35.4638 21.1795 35.7279 21.8965C35.8034 22.1229 35.9543 22.3116 36.1053 22.538C36.4072 22.9154 36.294 23.1796 35.9166 23.4437C35.6147 23.6702 35.1619 23.7834 35.3505 24.3872C35.5392 24.991 35.6902 25.5193 36.4449 25.4816C36.9355 25.4438 37.0865 25.7457 37.011 26.1986C36.9732 26.425 36.9732 26.6514 37.011 26.8401C37.1242 27.5571 36.9355 28.01 36.1053 27.9722C35.5015 27.9345 35.5015 28.4628 35.3505 28.8779C35.1996 29.293 35.2373 29.5572 35.6524 29.7836C36.294 30.1233 36.3317 30.5761 35.8789 31.1422C35.7656 31.2931 35.6524 31.4818 35.577 31.6328C35.3505 32.1988 34.9732 32.3875 34.4448 32.0479C33.9543 31.746 33.6146 31.9724 33.275 32.312C32.8976 32.6894 32.7467 33.029 33.0486 33.5196C33.3505 33.9725 33.1995 34.2744 32.7089 34.5008C32.5202 34.5763 32.2938 34.6895 32.1429 34.8027C31.5768 35.2555 31.0862 35.2555 30.6711 34.5763C30.5579 34.3876 30.1428 34.2744 29.9541 34.3498C29.539 34.5008 29.1616 34.7272 28.8597 35.0291C28.671 35.2178 28.7088 35.5952 28.6333 35.9726ZM27.5389 33.1422C31.1994 33.1422 34.1807 30.2742 34.1807 26.7646C34.1807 23.1796 31.2372 20.2361 27.6144 20.2361C24.0293 20.2361 20.9726 23.1796 20.9726 26.6514C20.9726 30.2365 23.8784 33.1422 27.5389 33.1422Z" fill="#64BDE1"/>
<path d="M27.5766 32.312C24.3312 32.312 21.8028 29.8591 21.7651 26.6137C21.7651 23.6324 24.4067 21.0663 27.5012 21.0286C30.6711 21.0286 33.3127 23.557 33.3127 26.6892C33.3504 29.7836 30.7466 32.312 27.5766 32.312ZM27.9917 22.0097C27.6898 22.0852 27.237 22.0852 27.086 22.3116C26.52 23.1041 26.4445 23.1419 25.5765 22.5003C25.3124 22.6513 25.0482 22.8022 24.8218 22.9154C25.0105 23.7079 24.7463 24.2362 24.2935 24.0853C23.5387 23.8211 23.501 24.3495 23.2746 24.7646C23.9538 25.5571 23.8406 25.8967 22.8594 26.2741V27.1043C23.8406 27.5194 23.8784 27.7081 23.2368 28.6893C23.4255 28.8779 23.6142 29.2553 23.8406 29.2931C24.8973 29.5195 24.8973 29.4817 24.8595 30.4629C25.2369 30.7271 25.5765 31.029 26.0671 30.5384C26.1803 30.4252 26.8596 30.6139 26.8974 30.7648C27.0483 31.4818 27.5389 31.2931 27.954 31.2554C28.2559 30.3874 28.7842 30.161 29.5012 30.878C29.9164 30.6893 30.4447 30.5761 30.2182 29.8591C30.1805 29.7459 30.6711 29.444 30.973 29.2931C31.0862 29.2176 31.2749 29.3308 31.4636 29.3685C31.6145 29.0666 31.7277 28.8402 31.8787 28.576C31.1994 27.8213 31.3126 27.4439 32.2938 27.1043C32.2938 26.9911 32.3315 26.8401 32.3315 26.6892C32.3315 26.5382 32.2938 26.3495 32.2938 26.2363C31.3504 25.9344 31.2749 25.6325 31.9164 24.6891C31.7655 24.4627 31.6145 24.1985 31.4636 23.9721C30.4069 24.2362 30.1428 23.9721 30.3692 22.8777C30.105 22.7267 29.8409 22.5758 29.6144 22.4248C28.7842 23.2173 28.4446 23.1041 27.9917 22.0097Z" fill="#64BDE1"/>
<path d="M76.0692 21.7833V16.0095V14.2358H82.711H84.5978V21.7833H82.8242V15.6321H77.8051V21.7833H76.0692Z" fill="black"/>
<path d="M87.4281 21.7833V14.2358H95.1643V15.5189H89.2018V17.2171H92.6736V18.5002H89.2018V20.387H95.2398V21.8211L87.4281 21.7833Z" fill="black"/>
<path d="M97.5417 21.7833V20.3493H98.5229V17.9341C98.5229 16.7265 98.9003 15.8208 99.6173 15.1793C100.372 14.5378 101.429 14.1981 102.825 14.1981H107.731V20.3493H108.674V21.7833H97.5417ZM105.957 15.5567H102.825C102.032 15.5567 101.391 15.7454 100.976 16.1605C100.523 16.5756 100.297 17.1794 100.297 17.9341V20.3493H105.957V15.5567Z" fill="black"/>
<path d="M110.41 21.7833L114.675 14.2358H116.373L120.713 21.7833H118.75L117.844 20.1229H113.052L112.184 21.7833H110.41ZM113.807 18.7643H117.127L115.505 15.6699L113.807 18.7643Z" fill="black"/>
<path d="M123.203 21.7833V14.2358H130.109L129.279 15.5566H124.939V21.7833H123.203Z" fill="black"/>
<path d="M132.222 16.0095C132.222 15.3302 132.336 14.8396 132.6 14.6132C132.864 14.3491 133.355 14.2358 134.109 14.2358H139.694C140.411 14.2358 140.902 14.3491 141.166 14.6132C141.43 14.8774 141.544 15.3302 141.544 16.0095V20.0097C141.544 20.6889 141.43 21.1795 141.166 21.4059C140.902 21.6701 140.411 21.7833 139.694 21.7833H134.109C133.392 21.7833 132.902 21.6701 132.6 21.4059C132.336 21.1418 132.222 20.6889 132.222 20.0097V16.0095ZM133.996 20.3493H139.808V15.5566H133.996V20.3493Z" fill="black"/>
<path d="M144.6 21.7833V14.2358H151.506L150.676 15.5566H146.336V21.7833H144.6Z" fill="black"/>
<path d="M160.79 21.7833V17.6699C160.79 17.4435 160.79 17.2548 160.79 17.1416C160.79 17.0661 160.79 16.9529 160.827 16.8397C160.865 16.7265 160.865 16.5756 160.865 16.5001C160.79 16.5756 160.714 16.6888 160.601 16.802C160.525 16.8775 160.412 16.9907 160.261 17.1039L154.714 21.7833H153.506V14.2358H155.091V18.1983C155.091 18.3492 155.091 18.5002 155.091 18.6134C155.091 18.6889 155.091 18.8398 155.054 19.0285C155.016 19.2172 155.016 19.3681 155.016 19.5191C155.167 19.3681 155.28 19.2172 155.393 19.104C155.506 18.9908 155.657 18.8775 155.884 18.6889L161.205 14.2358H162.412V21.7833H160.79Z" fill="black"/>
<path d="M167.205 14.1981V18.1228H172.224V14.1981H173.998V21.7456H172.224V19.5191H167.318C166.601 19.5191 166.111 19.4059 165.846 19.1417C165.582 18.8776 165.469 18.4247 165.469 17.7454V14.1981C165.431 14.1981 167.205 14.1981 167.205 14.1981Z" fill="black"/>
<path d="M177.13 21.7833V14.2358H184.866V15.5189H178.904V17.2171H182.375V18.5002H178.904V20.387H184.942V21.8211L177.13 21.7833Z" fill="black"/>
<path d="M194.187 15.5566H189.432V20.3493H194.187V18.7266L195.961 19.104V20.0097C195.961 20.6889 195.848 21.1795 195.584 21.4059C195.319 21.6701 194.829 21.7833 194.074 21.7833H189.546C188.829 21.7833 188.338 21.6701 188.036 21.4059C187.772 21.1418 187.659 20.6889 187.659 20.0097V16.0095C187.659 15.3302 187.772 14.8396 188.036 14.6132C188.3 14.3491 188.791 14.2358 189.546 14.2358H194.074C194.791 14.2358 195.282 14.3491 195.584 14.6132C195.848 14.8774 195.961 15.3302 195.961 16.0095V16.7265L194.187 16.9907V15.5566Z" fill="black"/>
<path d="M198.263 21.7833V14.2358H200.037V17.368L204.225 14.2358H206.792L201.772 17.7832L207.395 21.7833H204.565L200.037 18.4624V21.7833H198.263Z" fill="black"/>
<path d="M217.018 21.7833V17.6699C217.018 17.4435 217.018 17.2548 217.018 17.1416C217.018 17.0661 217.018 16.9529 217.056 16.8397C217.056 16.6888 217.094 16.5756 217.094 16.5001C217.018 16.5756 216.943 16.6888 216.83 16.802C216.754 16.8775 216.641 16.9907 216.49 17.1039L210.943 21.7833H209.735V14.2358H211.32V18.1983C211.32 18.3492 211.32 18.5002 211.32 18.6134C211.32 18.6889 211.32 18.8398 211.282 19.0285C211.282 19.2172 211.245 19.3681 211.245 19.5191C211.395 19.3681 211.509 19.2172 211.622 19.104C211.735 18.9908 211.886 18.8775 212.112 18.6889L217.433 14.2358H218.641V21.7833H217.018Z" fill="black"/>
<path d="M228.377 21.7833V17.6699C228.377 17.4435 228.377 17.2548 228.377 17.1416C228.377 17.0662 228.377 16.9529 228.415 16.8397C228.415 16.6888 228.453 16.5756 228.453 16.5001C228.377 16.5756 228.302 16.6888 228.189 16.802C228.113 16.8775 228 16.9907 227.849 17.1039L222.302 21.7833H221.094V14.2358H222.679V18.1983C222.679 18.3492 222.679 18.5002 222.679 18.6134C222.679 18.6889 222.679 18.8398 222.641 19.0285C222.641 19.2172 222.603 19.3681 222.603 19.5191C222.754 19.3681 222.868 19.2172 222.981 19.104C223.094 18.9908 223.245 18.8775 223.471 18.6889L228.792 14.2358H230V21.7833H228.377ZM227.321 14.1981V12.915H223.887V14.1981H227.321Z" fill="black"/>
<path d="M75.7296 39.3689V31.8214H77.5032V34.9913L81.6921 31.8214H84.2582L79.2391 35.3687L84.862 39.3689H82.0317L77.5032 36.048V39.3689H75.7296Z" fill="black"/>
<path d="M86.5602 39.3689V31.8214H93.0133C93.6171 31.8214 94.0322 31.9346 94.3341 32.161C94.5982 32.3875 94.7114 32.7648 94.7114 33.2554V34.1611C94.7114 34.5008 94.5982 34.8027 94.3718 35.0291C94.1454 35.2555 93.8058 35.4065 93.3906 35.4442C93.8435 35.5197 94.1454 35.6706 94.4096 35.8971C94.636 36.1235 94.7492 36.4631 94.7492 36.8782V37.8594C94.7492 38.35 94.5605 38.7274 94.1831 38.9915C93.8057 39.2179 93.2774 39.3689 92.5227 39.3689H86.5602ZM92.2962 33.029H88.2961V34.8404H92.2962C92.5981 34.8404 92.7868 34.8027 92.9378 34.7272C93.051 34.6517 93.1265 34.5008 93.1265 34.3121V33.5951C93.1265 33.4064 93.051 33.2554 92.9378 33.18C92.7868 33.0667 92.5981 33.029 92.2962 33.029ZM92.2962 36.0857H88.2961V38.0103H92.2962C92.6359 38.0103 92.8623 37.9726 92.9755 37.8594C93.0887 37.7462 93.1642 37.5952 93.1642 37.3311V36.765C93.1642 36.5008 93.0887 36.3499 92.9755 36.2367C92.8623 36.1235 92.6359 36.0857 92.2962 36.0857Z" fill="black"/>
<path d="M96.1455 39.3689L100.41 31.8214H102.108L106.448 39.3689H104.485L103.58 37.7084H98.7871L97.9191 39.3689H96.1455ZM99.5418 36.3499H102.863L101.24 33.2932L99.5418 36.3499Z" fill="black"/>
<path d="M108.108 39.3689V31.8214H109.882V34.7649H115.392V31.8214H117.165V39.3689H115.392V36.1235H109.882V39.3689H108.108Z" fill="black"/>
<path d="M123.807 33.1422V39.3689H122.033V33.1422H118.561V31.7837H127.279V33.1422H123.807Z" fill="black"/>
<path d="M128.373 33.5951C128.373 32.9158 128.486 32.4252 128.751 32.1988C129.015 31.9346 129.505 31.8214 130.26 31.8214H135.845C136.562 31.8214 137.053 31.9346 137.317 32.1988C137.581 32.4629 137.732 32.9158 137.732 33.5951V37.5952C137.732 38.2745 137.619 38.7651 137.317 38.9915C137.053 39.2557 136.562 39.3689 135.845 39.3689H130.26C129.543 39.3689 129.052 39.2557 128.751 38.9915C128.486 38.7274 128.373 38.2745 128.373 37.5952V33.5951ZM130.147 37.9349H135.958V33.1422H130.147V37.9349Z" fill="black"/>
<path d="M139.808 39.3689V31.8214H146.261C146.865 31.8214 147.28 31.9346 147.582 32.161C147.846 32.3875 147.997 32.7648 147.997 33.2932V34.9913C147.997 35.5197 147.883 35.8593 147.582 36.0857C147.317 36.3122 146.865 36.4254 146.261 36.4254H141.544V39.3689H139.808ZM145.468 33.1045H141.506V35.1046H145.468C145.77 35.1046 145.997 35.0668 146.11 34.9536C146.223 34.8781 146.261 34.7272 146.261 34.5008V33.7083C146.261 33.4819 146.223 33.3309 146.11 33.2554C145.997 33.1422 145.808 33.1045 145.468 33.1045Z" fill="black"/>
<path d="M157.959 39.3689V35.2932C157.959 35.0668 157.959 34.8781 157.959 34.7649C157.959 34.6895 157.959 34.5762 157.997 34.463C157.997 34.3121 158.035 34.1989 158.035 34.1234C157.959 34.1989 157.884 34.3121 157.771 34.4253C157.695 34.5008 157.582 34.614 157.431 34.7649L151.884 39.4444H150.676V31.8969H152.261V35.7838C152.261 35.9348 152.261 36.0857 152.261 36.199C152.261 36.2744 152.261 36.4254 152.223 36.6141C152.186 36.8027 152.186 36.9537 152.186 37.1046C152.336 36.9537 152.45 36.8027 152.563 36.6895C152.676 36.5763 152.827 36.4631 153.053 36.2744L158.374 31.8214H159.582V39.3689H157.959Z" fill="black"/>
<path d="M162.073 39.3689V37.9349H166.412H168.865V36.6895H163.96C163.243 36.6895 162.752 36.5763 162.488 36.3122C162.224 36.048 162.11 35.5951 162.11 34.9159V31.8214H163.884V35.4065H168.903V31.8214H170.677V37.5952C170.677 38.2745 170.564 38.7651 170.299 38.9915C170.035 39.2557 169.545 39.3689 168.79 39.3689H166.337H164.035H162.073Z" fill="black"/>
<path d="M172.979 39.3689V31.8214H174.413L177.96 36.3876L181.432 31.8214H182.828V39.3689H181.206V34.6895C181.206 34.5385 181.206 34.4253 181.206 34.3498C181.206 34.2366 181.243 34.0857 181.243 33.897C181.206 33.9724 181.168 34.0857 181.13 34.1611C181.092 34.2366 181.055 34.3121 181.017 34.3876C180.941 34.5385 180.866 34.6517 180.828 34.6895L177.998 38.4632H177.658L174.828 34.6517C174.752 34.5762 174.677 34.4253 174.564 34.2366C174.451 34.0857 174.413 33.9724 174.375 33.8592C174.375 34.0102 174.413 34.1611 174.413 34.3121V34.6895V39.3689H172.979Z" fill="black"/>
<path d="M190.866 39.3689V31.8214H197.319C197.923 31.8214 198.338 31.9346 198.64 32.161C198.904 32.3875 199.055 32.7648 199.055 33.2932V34.9913C199.055 35.5197 198.942 35.8593 198.64 36.0857C198.376 36.3122 197.923 36.4254 197.319 36.4254H192.602V39.3689H190.866ZM196.527 33.1045H192.565V35.1046H196.527C196.829 35.1046 197.055 35.0668 197.168 34.9536C197.282 34.8781 197.319 34.7272 197.319 34.5008V33.7083C197.319 33.4819 197.282 33.3309 197.168 33.2554C197.055 33.1422 196.867 33.1045 196.527 33.1045Z" fill="black"/>
<path d="M201.961 39.3689V31.8214H208.867L208.037 33.1422H203.735V39.3689H201.961Z" fill="black"/>
<path d="M210.226 39.3689V33.5951V31.8214H216.867H218.754V39.3689H216.981V33.2177H211.961V39.3689H210.226Z" fill="black"/>
<path d="M221.358 39.3689V37.9349H225.698H228.151V36.6895H223.245C222.528 36.6895 222.037 36.5763 221.773 36.3122C221.509 36.048 221.396 35.5951 221.396 34.9159V31.8214H223.17V35.4065H228.189V31.8214H229.962V37.5952C229.962 38.2745 229.849 38.7651 229.585 38.9915C229.321 39.2557 228.83 39.3689 228.075 39.3689H225.622H223.321H221.358Z" fill="black"/>
</svg>
